<svg width="120" height="70" viewBox="0 0 120 70" fill="none" xmlns="http://www.w3.org/2000/svg">
<path d="M26.042 61.5234C29.4584 61.5234 32.228 58.7539 32.228 55.3374C32.228 51.9209 29.4584 49.1514 26.042 49.1514C22.6255 49.1514 19.856 51.9209 19.856 55.3374C19.856 58.7539 22.6255 61.5234 26.042 61.5234Z" fill="#F2F2F2"/>
<path d="M27.0483 60.6172C30.4648 60.6172 33.2344 57.8476 33.2344 54.4312C33.2344 51.0147 30.4648 48.2451 27.0483 48.2451C23.6319 48.2451 20.8623 51.0147 20.8623 54.4312C20.8623 57.8476 23.6319 60.6172 27.0483 60.6172Z" fill="#5E17EB"/>
<path d="M108.568 47.5869H32.0303V47.7958H108.568V47.5869Z" fill="#3F3D56"/>
<path d="M71.6695 2.80308H44.5033V2.24316H32.1851V2.80308H4.90693C4.66561 2.80308 4.42666 2.85061 4.20371 2.94296C3.98076 3.03531 3.77819 3.17066 3.60755 3.3413C3.43692 3.51194 3.30156 3.71451 3.20921 3.93746C3.11687 4.1604 3.06934 4.39936 3.06934 4.64067V41.8396C3.06934 42.327 3.26294 42.7943 3.60755 43.139C3.95217 43.4836 4.41957 43.6772 4.90693 43.6772H71.6695C72.1569 43.6772 72.6243 43.4836 72.9689 43.139C73.3135 42.7943 73.5071 42.327 73.5071 41.8396V4.64067C73.5071 4.39936 73.4596 4.1604 73.3672 3.93746C73.2749 3.71451 73.1395 3.51194 72.9689 3.3413C72.7983 3.17066 72.5957 3.03531 72.3727 2.94296C72.1498 2.85061 71.9109 2.80308 71.6695 2.80308Z" fill="#3F3D56"/>
<path d="M71.0432 6.05078H5.53271V43.0054H71.0432V6.05078Z" fill="#5E17EB"/>
<path d="M38.2325 5.04303C38.6035 5.04303 38.9044 4.74221 38.9044 4.37112C38.9044 4.00004 38.6035 3.69922 38.2325 3.69922C37.8614 3.69922 37.5605 4.00004 37.5605 4.37112C37.5605 4.74221 37.8614 5.04303 38.2325 5.04303Z" fill="#6C63FF"/>
<path opacity="0.1" d="M52.3083 43.0054H5.53271V6.05078L52.3083 43.0054Z" fill="black"/>
<path d="M15.7834 40.2407C19.2612 40.2407 22.0805 37.4214 22.0805 33.9436C22.0805 30.4658 19.2612 27.6465 15.7834 27.6465C12.3056 27.6465 9.48633 30.4658 9.48633 33.9436C9.48633 37.4214 12.3056 40.2407 15.7834 40.2407Z" fill="#F2F2F2"/>
<path d="M59.6364 25.9805H53.5171V27.2592H59.6364V25.9805Z" fill="#3F3D56"/>
<path d="M67.0347 16.0254H46.1191V16.5734H67.0347V16.0254Z" fill="#3F3D56"/>
<path d="M67.0347 17.7607H46.1191V18.3087H67.0347V17.7607Z" fill="#3F3D56"/>
<path d="M67.0347 19.4961H46.1191V20.0441H67.0347V19.4961Z" fill="#3F3D56"/>
<path d="M67.0347 21.2314H46.1191V21.7795H67.0347V21.2314Z" fill="#3F3D56"/>
<path d="M67.0347 22.9668H46.1191V23.5148H67.0347V22.9668Z" fill="#3F3D56"/>
<path d="M67.0349 6.7998H64.4775V9.35712H67.0349V6.7998Z" fill="#F2F2F2"/>
<path d="M68.222 10.5449H65.1167V7.43945H68.222V10.5449ZM65.2517 10.4098H68.087V7.57448H65.2517V10.4098Z" fill="#3F3D56"/>
<path d="M75.3463 42.3332H68.9529V41.8726C68.9529 41.8606 68.9506 41.8487 68.946 41.8376C68.9414 41.8266 68.9347 41.8165 68.9262 41.808C68.9177 41.7995 68.9076 41.7928 68.8965 41.7882C68.8855 41.7836 68.8736 41.7812 68.8616 41.7813H66.6696C66.6576 41.7812 66.6457 41.7836 66.6346 41.7882C66.6235 41.7928 66.6135 41.7995 66.605 41.808C66.5965 41.8165 66.5898 41.8266 66.5852 41.8376C66.5806 41.8487 66.5782 41.8606 66.5782 41.8726V42.3332H65.2082V41.8726C65.2082 41.8606 65.2059 41.8487 65.2013 41.8376C65.1967 41.8266 65.1899 41.8165 65.1815 41.808C65.173 41.7995 65.1629 41.7928 65.1518 41.7882C65.1408 41.7836 65.1289 41.7812 65.1169 41.7813H62.9249C62.9129 41.7812 62.901 41.7836 62.8899 41.7882C62.8788 41.7928 62.8688 41.7995 62.8603 41.808C62.8518 41.8165 62.8451 41.8266 62.8405 41.8376C62.8359 41.8487 62.8335 41.8606 62.8335 41.8726V42.3332H61.4635V41.8726C61.4635 41.8606 61.4612 41.8487 61.4566 41.8376C61.452 41.8266 61.4452 41.8165 61.4368 41.808C61.4283 41.7995 61.4182 41.7928 61.4071 41.7882C61.396 41.7836 61.3842 41.7812 61.3722 41.7813H59.1802C59.1682 41.7812 59.1563 41.7836 59.1452 41.7882C59.1341 41.7928 59.1241 41.7995 59.1156 41.808C59.1071 41.8165 59.1004 41.8266 59.0958 41.8376C59.0912 41.8487 59.0888 41.8606 59.0888 41.8726V42.3332H57.7188V41.8726C57.7188 41.8606 57.7164 41.8487 57.7119 41.8376C57.7073 41.8266 57.7005 41.8165 57.6921 41.808C57.6836 41.7995 57.6735 41.7928 57.6624 41.7882C57.6513 41.7836 57.6395 41.7812 57.6275 41.7813H55.4354C55.4235 41.7812 55.4116 41.7836 55.4005 41.7882C55.3894 41.7928 55.3793 41.7995 55.3709 41.808C55.3624 41.8165 55.3557 41.8266 55.3511 41.8376C55.3465 41.8487 55.3441 41.8606 55.3441 41.8726V42.3332H53.9741V41.8726C53.9741 41.8606 53.9717 41.8487 53.9671 41.8376C53.9626 41.8266 53.9558 41.8165 53.9473 41.808C53.9389 41.7995 53.9288 41.7928 53.9177 41.7882C53.9066 41.7836 53.8948 41.7812 53.8828 41.7813H51.6907C51.6787 41.7812 51.6669 41.7836 51.6558 41.7882C51.6447 41.7928 51.6346 41.7995 51.6262 41.808C51.6177 41.8165 51.6109 41.8266 51.6064 41.8376C51.6018 41.8487 51.5994 41.8606 51.5994 41.8726V42.3332H50.2294V41.8726C50.2294 41.8606 50.227 41.8487 50.2224 41.8376C50.2178 41.8266 50.2111 41.8165 50.2026 41.808C50.1942 41.7995 50.1841 41.7928 50.173 41.7882C50.1619 41.7836 50.1501 41.7812 50.1381 41.7813H47.946C47.934 41.7812 47.9222 41.7836 47.9111 41.7882C47.9 41.7928 47.8899 41.7995 47.8815 41.808C47.873 41.8165 47.8662 41.8266 47.8617 41.8376C47.8571 41.8487 47.8547 41.8606 47.8547 41.8726V42.3332H46.4847V41.8726C46.4847 41.8606 46.4823 41.8487 46.4777 41.8376C46.4731 41.8266 46.4664 41.8165 46.4579 41.808C46.4495 41.7995 46.4394 41.7928 46.4283 41.7882C46.4172 41.7836 46.4053 41.7812 46.3933 41.7813H29.2225C29.2105 41.7812 29.1986 41.7836 29.1876 41.7882C29.1765 41.7928 29.1664 41.7995 29.1579 41.808C29.1494 41.8165 29.1427 41.8266 29.1381 41.8376C29.1335 41.8487 29.1312 41.8606 29.1312 41.8726V42.3332H27.7612V41.8726C27.7612 41.8606 27.7588 41.8487 27.7542 41.8376C27.7496 41.8266 27.7429 41.8165 27.7344 41.808C27.7259 41.7995 27.7159 41.7928 27.7048 41.7882C27.6937 41.7836 27.6818 41.7812 27.6698 41.7813H25.4778C25.4658 41.7812 25.4539 41.7836 25.4428 41.7882C25.4318 41.7928 25.4217 41.7995 25.4132 41.808C25.4047 41.8165 25.398 41.8266 25.3934 41.8376C25.3888 41.8487 25.3865 41.8606 25.3865 41.8726V42.3332H24.0164V41.8726C24.0164 41.8606 24.0141 41.8487 24.0095 41.8376C24.0049 41.8266 23.9982 41.8165 23.9897 41.808C23.9812 41.7995 23.9711 41.7928 23.9601 41.7882C23.949 41.7836 23.9371 41.7812 23.9251 41.7813H21.7331C21.7211 41.7812 21.7092 41.7836 21.6981 41.7882C21.6871 41.7928 21.677 41.7995 21.6685 41.808C21.66 41.8165 21.6533 41.8266 21.6487 41.8376C21.6441 41.8487 21.6418 41.8606 21.6418 41.8726V42.3332H20.2717V41.8726C20.2717 41.8606 20.2694 41.8487 20.2648 41.8376C20.2602 41.8266 20.2535 41.8165 20.245 41.808C20.2365 41.7995 20.2264 41.7928 20.2154 41.7882C20.2043 41.7836 20.1924 41.7812 20.1804 41.7813H17.9884C17.9764 41.7812 17.9645 41.7836 17.9534 41.7882C17.9424 41.7928 17.9323 41.7995 17.9238 41.808C17.9153 41.8165 17.9086 41.8266 17.904 41.8376C17.8994 41.8487 17.897 41.8606 17.8971 41.8726V42.3332H16.527V41.8726C16.527 41.8606 16.5247 41.8487 16.5201 41.8376C16.5155 41.8266 16.5088 41.8165 16.5003 41.808C16.4918 41.7995 16.4817 41.7928 16.4707 41.7882C16.4596 41.7836 16.4477 41.7812 16.4357 41.7813H14.2437C14.2317 41.7812 14.2198 41.7836 14.2087 41.7882C14.1976 41.7928 14.1876 41.7995 14.1791 41.808C14.1706 41.8165 14.1639 41.8266 14.1593 41.8376C14.1547 41.8487 14.1523 41.8606 14.1523 41.8726V42.3332H12.7823V41.8726C12.7823 41.8606 12.78 41.8487 12.7754 41.8376C12.7708 41.8266 12.7641 41.8165 12.7556 41.808C12.7471 41.7995 12.737 41.7928 12.7259 41.7882C12.7149 41.7836 12.703 41.7812 12.691 41.7813H10.499C10.487 41.7812 10.4751 41.7836 10.464 41.7882C10.4529 41.7928 10.4429 41.7995 10.4344 41.808C10.4259 41.8165 10.4192 41.8266 10.4146 41.8376C10.41 41.8487 10.4076 41.8606 10.4076 41.8726V42.3332H9.03762V41.8726C9.03762 41.8606 9.03526 41.8487 9.03067 41.8376C9.02608 41.8266 9.01935 41.8165 9.01087 41.808C9.00239 41.7995 8.99232 41.7928 8.98124 41.7882C8.97016 41.7836 8.95828 41.7812 8.94629 41.7813H6.75427C6.74227 41.7812 6.73039 41.7836 6.71931 41.7882C6.70823 41.7928 6.69816 41.7995 6.68968 41.808C6.6812 41.8165 6.67447 41.8266 6.66988 41.8376C6.66529 41.8487 6.66293 41.8606 6.66293 41.8726V42.3332H2.46155C1.88019 42.3332 1.32264 42.5642 0.911561 42.9753C0.500477 43.3863 0.269532 43.9439 0.269531 44.5252V45.5164C0.269533 46.0978 0.500478 46.6553 0.911562 47.0664C1.32265 47.4775 1.8802 47.7084 2.46155 47.7084H75.3463C75.9277 47.7084 76.4852 47.4775 76.8963 47.0664C77.3074 46.6553 77.5383 46.0978 77.5383 45.5164V44.5252C77.5383 43.9439 77.3074 43.3863 76.8963 42.9753C76.4852 42.5642 75.9277 42.3332 75.3463 42.3332Z" fill="#3F3D56"/>
<path d="M17.3073 37.8753C15.7378 37.8753 14.2035 37.4099 12.8985 36.5379C11.5934 35.6659 10.5763 34.4265 9.97566 32.9765C9.37502 31.5264 9.21787 29.9308 9.52407 28.3914C9.83027 26.8521 10.5861 25.438 11.6959 24.3282C12.8057 23.2184 14.2197 22.4626 15.7591 22.1564C17.2985 21.8502 18.8941 22.0073 20.3442 22.608C21.7942 23.2086 23.0336 24.2258 23.9056 25.5308C24.7776 26.8358 25.243 28.3701 25.243 29.9396C25.2406 32.0436 24.4038 34.0606 22.9161 35.5484C21.4284 37.0361 19.4113 37.8729 17.3073 37.8753ZM17.3073 22.2127C15.7791 22.2127 14.2852 22.6659 13.0145 23.515C11.7438 24.364 10.7534 25.5708 10.1686 26.9827C9.58376 28.3946 9.43075 29.9482 9.72889 31.447C10.027 32.9459 10.7629 34.3227 11.8436 35.4033C12.9242 36.4839 14.301 37.2199 15.7999 37.518C17.2987 37.8161 18.8524 37.6631 20.2643 37.0783C21.6762 36.4935 22.8829 35.5031 23.732 34.2324C24.581 32.9617 25.0342 31.4678 25.0342 29.9396C25.0319 27.891 24.217 25.927 22.7685 24.4784C21.3199 23.0299 19.3559 22.2151 17.3073 22.2127Z" fill="#3F3D56"/>
<path d="M88.1024 4.25391H61.4761V4.46271H88.1024V4.25391Z" fill="#3F3D56"/>
<path d="M119.218 59.3857H42.6807V59.5946H119.218V59.3857Z" fill="#3F3D56"/>
<path d="M47.0141 68.9922H20.3877V69.201H47.0141V68.9922Z" fill="#3F3D56"/>
<path d="M52.3739 58.2852H49.4502V61.2089H52.3739V58.2852Z" fill="#5E17EB"/>
<path d="M54.1488 59.5385H50.5986V55.9883H54.1488V59.5385ZM50.753 59.3841H53.9944V56.1426H50.753V59.3841Z" fill="#3F3D56"/>
<path d="M86.3095 3.15332H83.3857V6.07697H86.3095V3.15332Z" fill="#5E17EB"/>
<path d="M88.0849 4.4057H84.5347V0.855469H88.0849V4.4057ZM84.689 4.25134H87.9305V1.00983H84.689V4.25134Z" fill="#3F3D56"/>
<path d="M115.755 58.2852H112.832V61.2089H115.755V58.2852Z" fill="#5E17EB"/>
<path d="M117.53 59.5385H113.979V55.9883H117.53V59.5385ZM114.134 59.3841H117.375V56.1426H114.134V59.3841Z" fill="#3F3D56"/>
<path d="M110.656 25.076H110.408V18.272C110.408 17.7548 110.306 17.2427 110.108 16.765C109.91 16.2872 109.62 15.8531 109.254 15.4874C108.889 15.1217 108.455 14.8316 107.977 14.6337C107.499 14.4358 106.987 14.334 106.47 14.334H92.0547C91.5375 14.334 91.0255 14.4358 90.5477 14.6337C90.0699 14.8316 89.6358 15.1217 89.2701 15.4874C88.9044 15.8531 88.6144 16.2872 88.4165 16.765C88.2186 17.2427 88.1167 17.7548 88.1167 18.272V55.5992C88.1167 56.1163 88.2186 56.6284 88.4165 57.1062C88.6144 57.584 88.9044 58.0181 89.2701 58.3838C89.6358 58.7495 90.0699 59.0395 90.5477 59.2374C91.0255 59.4353 91.5375 59.5372 92.0547 59.5372H106.47C106.987 59.5372 107.499 59.4353 107.977 59.2374C108.455 59.0395 108.889 58.7494 109.254 58.3838C109.62 58.0181 109.91 57.584 110.108 57.1062C110.306 56.6284 110.408 56.1163 110.408 55.5992V29.9192H110.656V25.076Z" fill="#3F3D56"/>
<path d="M109.57 18.5029V55.7757C109.57 56.5557 109.26 57.3038 108.709 57.8554C108.157 58.407 107.409 58.717 106.629 58.7172H92.1445C91.3645 58.717 90.6165 58.407 90.0651 57.8554C89.5137 57.3038 89.204 56.5557 89.2041 55.7757V18.5029C89.2042 17.7231 89.514 16.9752 90.0654 16.4238C90.6168 15.8724 91.3647 15.5626 92.1445 15.5625H93.9018C93.8153 15.7746 93.7824 16.0048 93.8058 16.2327C93.8292 16.4606 93.9083 16.6792 94.0361 16.8693C94.1639 17.0594 94.3365 17.2152 94.5387 17.3229C94.7409 17.4306 94.9665 17.4869 95.1956 17.4869H103.454C103.683 17.4869 103.909 17.4306 104.111 17.3229C104.313 17.2152 104.486 17.0594 104.613 16.8693C104.741 16.6792 104.82 16.4606 104.844 16.2327C104.867 16.0048 104.834 15.7746 104.748 15.5625H106.629C107.409 15.5626 108.157 15.8724 108.708 16.4238C109.26 16.9752 109.57 17.7231 109.57 18.5029Z" fill="#5E17EB"/>
<path d="M101.544 40.1396H97.2295V41.4183H101.544V40.1396Z" fill="#3F3D56"/>
<path d="M106.761 30.1836H92.0127V30.7316H106.761V30.1836Z" fill="#3F3D56"/>
<path d="M106.761 31.9189H92.0127V32.4669H106.761V31.9189Z" fill="#3F3D56"/>
<path d="M106.761 33.6543H92.0127V34.2023H106.761V33.6543Z" fill="#3F3D56"/>
<path d="M106.761 35.3906H92.0127V35.9386H106.761V35.3906Z" fill="#3F3D56"/>
<path d="M106.761 37.125H92.0127V37.673H106.761V37.125Z" fill="#3F3D56"/>
<path d="M99.9021 22.9062H97.3447V25.4636H99.9021V22.9062Z" fill="#F2F2F2"/>
<path d="M98.3237 23.5459V26.6513H101.429V23.5459H98.3237ZM101.294 26.5166H98.4584V23.6806H101.294V26.5166Z" fill="#3F3D56"/>
<path opacity="0.1" d="M109.57 51.7957V55.7761C109.57 56.5561 109.26 57.3042 108.709 57.8558C108.157 58.4074 107.409 58.7174 106.629 58.7175H92.1445C91.3645 58.7174 90.6165 58.4074 90.0651 57.8558C89.5137 57.3042 89.204 56.5561 89.2041 55.7761V35.7061L101.407 45.3469L101.616 45.5119L103.886 47.3047L104.098 47.4728L109.57 51.7957Z" fill="black"/>
<path d="M98.1333 57.5098C100.663 57.5098 102.714 55.459 102.714 52.9292C102.714 50.3994 100.663 48.3486 98.1333 48.3486C95.6035 48.3486 93.5527 50.3994 93.5527 52.9292C93.5527 55.459 95.6035 57.5098 98.1333 57.5098Z" fill="#F2F2F2"/>
<path d="M33.701 69.2008C31.9043 69.2008 30.1479 68.668 28.654 67.6698C27.1601 66.6716 25.9958 65.2529 25.3082 63.5929C24.6206 61.933 24.4407 60.1064 24.7913 58.3443C25.1418 56.5821 26.007 54.9634 27.2774 53.693C28.5479 52.4225 30.1666 51.5573 31.9287 51.2068C33.6909 50.8563 35.5175 51.0362 37.1774 51.7237C38.8374 52.4113 40.2561 53.5757 41.2543 55.0696C42.2525 56.5635 42.7853 58.3198 42.7853 60.1165C42.7826 62.525 41.8246 64.834 40.1216 66.5371C38.4185 68.2401 36.1095 69.1981 33.701 69.2008ZM33.701 51.2411C31.9456 51.2411 30.2296 51.7616 28.7701 52.7368C27.3105 53.7121 26.1729 55.0983 25.5011 56.72C24.8294 58.3418 24.6536 60.1264 24.9961 61.848C25.3385 63.5697 26.1838 65.1512 27.4251 66.3924C28.6664 67.6337 30.2478 68.479 31.9695 68.8214C33.6912 69.1639 35.4757 68.9881 37.0975 68.3164C38.7193 67.6446 40.1054 66.507 41.0807 65.0475C42.0559 63.5879 42.5765 61.8719 42.5765 60.1165C42.5738 57.7634 41.6379 55.5075 39.974 53.8436C38.3101 52.1797 36.0541 51.2437 33.701 51.2411Z" fill="#3F3D56"/>
<path d="M99.4837 56.4625C98.3478 56.4625 97.2375 56.1256 96.2931 55.4946C95.3486 54.8636 94.6126 53.9666 94.1779 52.9172C93.7432 51.8679 93.6295 50.7131 93.8511 49.5991C94.0727 48.4851 94.6196 47.4618 95.4228 46.6586C96.226 45.8555 97.2493 45.3085 98.3633 45.0869C99.4773 44.8653 100.632 44.9791 101.681 45.4137C102.731 45.8484 103.628 46.5845 104.259 47.5289C104.89 48.4733 105.227 49.5837 105.227 50.7195C105.225 52.2421 104.619 53.7019 103.543 54.7785C102.466 55.8551 101.006 56.4607 99.4837 56.4625ZM99.4837 45.1854C98.3891 45.1854 97.3192 45.51 96.4091 46.1181C95.499 46.7262 94.7897 47.5905 94.3708 48.6017C93.952 49.6129 93.8424 50.7257 94.0559 51.7992C94.2694 52.8727 94.7965 53.8588 95.5705 54.6327C96.3444 55.4067 97.3305 55.9338 98.404 56.1473C99.4776 56.3608 100.59 56.2512 101.602 55.8324C102.613 55.4135 103.477 54.7042 104.085 53.7941C104.693 52.884 105.018 51.8141 105.018 50.7195C105.016 49.2523 104.433 47.8456 103.395 46.8081C102.358 45.7706 100.951 45.187 99.4837 45.1854Z" fill="#3F3D56"/>
</svg>
