<svg width="823" height="625" viewBox="0 0 823 625" fill="none" xmlns="http://www.w3.org/2000/svg">
<g clip-path="url(#clip0)">
<path d="M412.719 574.688C616.785 574.688 782.213 564.553 782.213 552.051C782.213 539.549 616.785 529.414 412.719 529.414C208.653 529.414 43.2246 539.549 43.2246 552.051C43.2246 564.553 208.653 574.688 412.719 574.688Z" fill="#3F3D56"/>
<path opacity="0.1" d="M412.719 566.655C586.539 566.655 727.447 559.953 727.447 551.685C727.447 543.418 586.539 536.716 412.719 536.716C238.9 536.716 97.9922 543.418 97.9922 551.685C97.9922 559.953 238.9 566.655 412.719 566.655Z" fill="black"/>
<path d="M154.949 624.343C240.525 624.343 309.898 618.294 309.898 610.833C309.898 603.373 240.525 597.324 154.949 597.324C69.3731 597.324 0 603.373 0 610.833C0 618.294 69.3731 624.343 154.949 624.343Z" fill="#3F3D56"/>
<path opacity="0.1" d="M154.949 619.55C227.841 619.55 286.932 615.55 286.932 610.616C286.932 605.682 227.841 601.683 154.949 601.683C82.0573 601.683 22.9668 605.682 22.9668 610.616C22.9668 615.55 82.0573 619.55 154.949 619.55Z" fill="black"/>
<path d="M692.395 118.297H143.266V549.13H692.395V118.297Z" fill="#3F3D56"/>
<path d="M411.582 177.174H276.112C275.896 177.174 275.682 177.132 275.482 177.05C275.282 176.967 275.101 176.846 274.948 176.694C274.795 176.541 274.673 176.359 274.59 176.16C274.507 175.96 274.465 175.746 274.465 175.53C274.465 175.314 274.507 175.1 274.59 174.9C274.673 174.7 274.795 174.519 274.948 174.366C275.101 174.213 275.282 174.092 275.482 174.01C275.682 173.927 275.896 173.885 276.112 173.886H411.582C412.018 173.887 412.435 174.06 412.742 174.369C413.05 174.677 413.223 175.094 413.223 175.53C413.223 175.965 413.05 176.383 412.742 176.691C412.435 176.999 412.018 177.173 411.582 177.174Z" fill="#F2F2F2"/>
<path d="M559.877 195.259H346.808C346.372 195.259 345.954 195.086 345.646 194.777C345.337 194.469 345.164 194.051 345.164 193.615C345.164 193.179 345.337 192.761 345.646 192.452C345.954 192.144 346.372 191.971 346.808 191.971H559.877C560.093 191.971 560.307 192.013 560.506 192.096C560.706 192.178 560.887 192.3 561.04 192.452C561.192 192.605 561.313 192.786 561.396 192.986C561.479 193.185 561.521 193.399 561.521 193.615C561.521 193.831 561.479 194.044 561.396 194.244C561.313 194.443 561.192 194.625 561.04 194.777C560.887 194.93 560.706 195.051 560.506 195.134C560.307 195.216 560.093 195.259 559.877 195.259Z" fill="#F2F2F2"/>
<path d="M412.241 213.343H276.771C276.335 213.343 275.917 213.17 275.608 212.861C275.3 212.553 275.127 212.135 275.127 211.699C275.127 211.263 275.3 210.845 275.608 210.536C275.917 210.228 276.335 210.055 276.771 210.055H412.241C412.677 210.055 413.095 210.228 413.403 210.536C413.712 210.845 413.885 211.263 413.885 211.699C413.885 212.135 413.712 212.553 413.403 212.861C413.095 213.17 412.677 213.343 412.241 213.343Z" fill="#F2F2F2"/>
<path d="M559.876 213.672H424.406C423.97 213.672 423.552 213.499 423.243 213.19C422.935 212.882 422.762 212.464 422.762 212.028C422.762 211.592 422.935 211.174 423.243 210.865C423.552 210.557 423.97 210.384 424.406 210.384H559.876C560.312 210.384 560.73 210.557 561.038 210.865C561.346 211.174 561.52 211.592 561.52 212.028C561.52 212.464 561.346 212.882 561.038 213.19C560.73 213.499 560.312 213.672 559.876 213.672Z" fill="#F2F2F2"/>
<path d="M412.569 231.428H277.099C276.663 231.428 276.245 231.255 275.937 230.946C275.628 230.638 275.455 230.22 275.455 229.784C275.455 229.348 275.628 228.929 275.937 228.621C276.245 228.313 276.663 228.14 277.099 228.14H412.569C413.005 228.14 413.423 228.313 413.731 228.621C414.04 228.929 414.213 229.348 414.213 229.784C414.213 230.22 414.04 230.638 413.731 230.946C413.423 231.255 413.005 231.428 412.569 231.428Z" fill="#F2F2F2"/>
<path d="M412.899 249.513H277.429C276.993 249.513 276.575 249.34 276.267 249.031C275.958 248.723 275.785 248.305 275.785 247.869C275.785 247.433 275.958 247.014 276.267 246.706C276.575 246.398 276.993 246.225 277.429 246.225H412.899C413.335 246.225 413.753 246.398 414.062 246.706C414.37 247.014 414.543 247.433 414.543 247.869C414.543 248.305 414.37 248.723 414.062 249.031C413.753 249.34 413.335 249.513 412.899 249.513Z" fill="#F2F2F2"/>
<path d="M474.385 177.503H435.585C435.149 177.503 434.731 177.33 434.423 177.021C434.115 176.713 433.941 176.295 433.941 175.859C433.941 175.423 434.115 175.005 434.423 174.696C434.731 174.388 435.149 174.215 435.585 174.215H474.385C474.821 174.215 475.239 174.388 475.548 174.696C475.856 175.005 476.029 175.423 476.029 175.859C476.029 176.295 475.856 176.713 475.548 177.021C475.239 177.33 474.821 177.503 474.385 177.503Z" fill="#F2F2F2"/>
<path d="M474.385 231.428H435.585C435.149 231.428 434.731 231.255 434.423 230.946C434.115 230.638 433.941 230.22 433.941 229.784C433.941 229.348 434.115 228.929 434.423 228.621C434.731 228.313 435.149 228.14 435.585 228.14H474.385C474.821 228.14 475.239 228.313 475.548 228.621C475.856 228.929 476.029 229.348 476.029 229.784C476.029 230.22 475.856 230.638 475.548 230.946C475.239 231.255 474.821 231.428 474.385 231.428Z" fill="#F2F2F2"/>
<path d="M474.387 249.184H435.587C435.371 249.184 435.157 249.142 434.957 249.059C434.757 248.977 434.575 248.856 434.422 248.703C434.269 248.551 434.148 248.369 434.065 248.17C433.982 247.97 433.939 247.756 433.939 247.54C433.939 247.323 433.982 247.109 434.065 246.91C434.148 246.71 434.269 246.529 434.422 246.376C434.575 246.223 434.757 246.102 434.957 246.02C435.157 245.937 435.371 245.895 435.587 245.896H474.387C474.603 245.895 474.817 245.937 475.017 246.02C475.217 246.102 475.398 246.223 475.551 246.376C475.704 246.529 475.826 246.71 475.909 246.91C475.991 247.109 476.034 247.323 476.034 247.54C476.034 247.756 475.991 247.97 475.909 248.17C475.826 248.369 475.704 248.551 475.551 248.703C475.398 248.856 475.217 248.977 475.017 249.059C474.817 249.142 474.603 249.184 474.387 249.184Z" fill="#F2F2F2"/>
<path d="M539.491 249.184H500.691C500.256 249.183 499.839 249.009 499.531 248.701C499.224 248.393 499.051 247.975 499.051 247.54C499.051 247.104 499.224 246.686 499.531 246.378C499.839 246.07 500.256 245.896 500.691 245.896H539.491C539.707 245.895 539.921 245.937 540.121 246.02C540.321 246.102 540.503 246.223 540.656 246.376C540.809 246.529 540.93 246.71 541.013 246.91C541.096 247.109 541.138 247.323 541.138 247.54C541.138 247.756 541.096 247.97 541.013 248.17C540.93 248.369 540.809 248.551 540.656 248.703C540.503 248.856 540.321 248.977 540.121 249.059C539.921 249.142 539.707 249.184 539.491 249.184Z" fill="#F2F2F2"/>
<path d="M314.584 195.259H275.785C275.349 195.259 274.93 195.086 274.622 194.777C274.314 194.469 274.141 194.051 274.141 193.615C274.141 193.179 274.314 192.761 274.622 192.452C274.93 192.144 275.349 191.971 275.785 191.971H314.584C315.02 191.971 315.438 192.144 315.747 192.452C316.055 192.761 316.228 193.179 316.228 193.615C316.228 194.051 316.055 194.469 315.747 194.777C315.438 195.086 315.02 195.259 314.584 195.259Z" fill="#F2F2F2"/>
<path d="M411.747 443.511H276.277C275.841 443.511 275.423 443.338 275.114 443.029C274.806 442.721 274.633 442.303 274.633 441.867C274.633 441.431 274.806 441.013 275.114 440.704C275.423 440.396 275.841 440.223 276.277 440.223H411.747C412.183 440.223 412.601 440.396 412.909 440.704C413.218 441.013 413.391 441.431 413.391 441.867C413.391 442.303 413.218 442.721 412.909 443.029C412.601 443.338 412.183 443.511 411.747 443.511Z" fill="#F2F2F2"/>
<path d="M411.09 479.68H275.621C275.185 479.68 274.766 479.506 274.458 479.198C274.15 478.89 273.977 478.472 273.977 478.036C273.977 477.6 274.15 477.181 274.458 476.873C274.766 476.565 275.185 476.392 275.621 476.392H411.09C411.526 476.392 411.945 476.565 412.253 476.873C412.561 477.181 412.734 477.6 412.734 478.036C412.734 478.472 412.561 478.89 412.253 479.198C411.945 479.506 411.526 479.68 411.09 479.68Z" fill="#F2F2F2"/>
<path d="M411.418 497.764H275.948C275.732 497.764 275.518 497.722 275.318 497.639C275.118 497.557 274.937 497.436 274.784 497.283C274.631 497.131 274.509 496.949 274.426 496.75C274.343 496.55 274.301 496.336 274.301 496.12C274.301 495.903 274.343 495.689 274.426 495.49C274.509 495.29 274.631 495.109 274.784 494.956C274.937 494.803 275.118 494.682 275.318 494.6C275.518 494.517 275.732 494.475 275.948 494.476H411.418C411.634 494.475 411.848 494.517 412.048 494.6C412.248 494.682 412.43 494.803 412.583 494.956C412.736 495.109 412.857 495.29 412.94 495.49C413.023 495.689 413.066 495.903 413.066 496.12C413.066 496.336 413.023 496.55 412.94 496.75C412.857 496.949 412.736 497.131 412.583 497.283C412.43 497.436 412.248 497.557 412.048 497.639C411.848 497.722 411.634 497.764 411.418 497.764Z" fill="#F2F2F2"/>
<path d="M469.289 480.008H430.49C430.054 480.008 429.636 479.835 429.327 479.526C429.019 479.218 428.846 478.8 428.846 478.364C428.846 477.928 429.019 477.51 429.327 477.201C429.636 476.893 430.054 476.72 430.49 476.72H469.289C469.725 476.72 470.144 476.893 470.452 477.201C470.76 477.51 470.933 477.928 470.933 478.364C470.933 478.8 470.76 479.218 470.452 479.526C470.144 479.835 469.725 480.008 469.289 480.008Z" fill="#F2F2F2"/>
<path d="M469.289 497.764H430.49C430.054 497.764 429.636 497.59 429.327 497.282C429.019 496.974 428.846 496.556 428.846 496.12C428.846 495.684 429.019 495.265 429.327 494.957C429.636 494.649 430.054 494.476 430.49 494.476H469.289C469.725 494.476 470.144 494.649 470.452 494.957C470.76 495.265 470.933 495.684 470.933 496.12C470.933 496.556 470.76 496.974 470.452 497.282C470.144 497.59 469.725 497.764 469.289 497.764Z" fill="#F2F2F2"/>
<path d="M534.393 480.008H495.593C495.157 480.008 494.739 479.835 494.431 479.526C494.122 479.218 493.949 478.8 493.949 478.364C493.949 477.928 494.122 477.51 494.431 477.201C494.739 476.893 495.157 476.72 495.593 476.72H534.393C534.829 476.72 535.247 476.893 535.555 477.201C535.864 477.51 536.037 477.928 536.037 478.364C536.037 478.8 535.864 479.218 535.555 479.526C535.247 479.835 534.829 480.008 534.393 480.008Z" fill="#F2F2F2"/>
<path d="M560.041 461.595H346.972C346.536 461.595 346.118 461.422 345.81 461.113C345.501 460.805 345.328 460.387 345.328 459.951C345.328 459.515 345.501 459.096 345.81 458.788C346.118 458.48 346.536 458.307 346.972 458.307H560.041C560.477 458.307 560.895 458.48 561.204 458.788C561.512 459.096 561.685 459.515 561.685 459.951C561.685 460.387 561.512 460.805 561.204 461.113C560.895 461.422 560.477 461.595 560.041 461.595Z" fill="#F2F2F2"/>
<path d="M314.748 461.595H275.949C275.513 461.595 275.095 461.422 274.786 461.113C274.478 460.805 274.305 460.387 274.305 459.951C274.305 459.515 274.478 459.096 274.786 458.788C275.095 458.48 275.513 458.307 275.949 458.307H314.748C315.184 458.307 315.603 458.48 315.911 458.788C316.219 459.096 316.392 459.515 316.392 459.951C316.392 460.387 316.219 460.805 315.911 461.113C315.603 461.422 315.184 461.595 314.748 461.595Z" fill="#F2F2F2"/>
<path d="M560.041 516.178H346.972C346.756 516.178 346.541 516.136 346.342 516.054C346.142 515.971 345.96 515.85 345.807 515.697C345.654 515.545 345.533 515.363 345.45 515.164C345.367 514.964 345.324 514.75 345.324 514.534C345.324 514.318 345.367 514.103 345.45 513.904C345.533 513.704 345.654 513.523 345.807 513.37C345.96 513.217 346.142 513.096 346.342 513.014C346.541 512.931 346.756 512.889 346.972 512.89H560.041C560.477 512.89 560.895 513.063 561.203 513.371C561.512 513.68 561.685 514.098 561.685 514.534C561.685 514.97 561.512 515.388 561.203 515.696C560.895 516.005 560.477 516.178 560.041 516.178Z" fill="#F2F2F2"/>
<path d="M314.748 516.178H275.948C275.732 516.178 275.518 516.136 275.318 516.054C275.118 515.971 274.937 515.85 274.784 515.697C274.631 515.545 274.509 515.363 274.426 515.164C274.343 514.964 274.301 514.75 274.301 514.534C274.301 514.318 274.343 514.103 274.426 513.904C274.509 513.704 274.631 513.523 274.784 513.37C274.937 513.217 275.118 513.096 275.318 513.014C275.518 512.931 275.732 512.889 275.948 512.89H314.748C314.964 512.889 315.178 512.931 315.378 513.014C315.578 513.096 315.76 513.217 315.913 513.37C316.066 513.523 316.187 513.704 316.27 513.904C316.353 514.103 316.395 514.318 316.395 514.534C316.395 514.75 316.353 514.964 316.27 515.164C316.187 515.363 316.066 515.545 315.913 515.697C315.76 515.85 315.578 515.971 315.378 516.054C315.178 516.136 314.964 516.178 314.748 516.178Z" fill="#F2F2F2"/>
<path d="M379.032 292.916L326.422 344.868L379.032 396.82L390.869 384.983L351.083 345.197L391.197 305.082L379.032 292.916Z" fill="#5E17EB"/>
<path d="M456.63 292.916L509.24 344.868L456.63 396.82L444.793 384.983L484.58 345.197L444.465 305.082L456.63 292.916Z" fill="#5E17EB"/>
<path d="M157.871 135.822C161.5 135.822 164.443 132.879 164.443 129.25C164.443 125.62 161.5 122.678 157.871 122.678C154.241 122.678 151.299 125.62 151.299 129.25C151.299 132.879 154.241 135.822 157.871 135.822Z" fill="#5E17EB"/>
<path d="M175.396 135.822C179.026 135.822 181.968 132.879 181.968 129.25C181.968 125.62 179.026 122.678 175.396 122.678C171.767 122.678 168.824 125.62 168.824 129.25C168.824 132.879 171.767 135.822 175.396 135.822Z" fill="#5E17EB"/>
<path d="M192.922 135.822C196.551 135.822 199.494 132.879 199.494 129.25C199.494 125.62 196.551 122.678 192.922 122.678C189.292 122.678 186.35 125.62 186.35 129.25C186.35 132.879 189.292 135.822 192.922 135.822Z" fill="#5E17EB"/>
<path opacity="0.1" d="M692.395 140.203H143.266V142.394H692.395V140.203Z" fill="black"/>
<path d="M822.375 443.578C822.375 490.145 794.691 506.405 760.542 506.405C726.392 506.405 698.709 490.145 698.709 443.578C698.709 397.01 760.542 337.77 760.542 337.77C760.542 337.77 822.375 397.01 822.375 443.578Z" fill="white"/>
<path d="M758.291 499.282L758.924 460.309L785.279 412.094L759.024 454.196L759.308 436.672L777.471 401.789L759.384 432.035L759.896 400.517L779.345 372.746L759.976 395.561L760.296 337.771L758.285 414.276L758.45 411.119L738.676 380.851L758.134 417.178L756.291 452.377L756.236 451.443L733.439 419.589L756.167 454.743L755.937 459.145L755.895 459.211L755.914 459.573L751.239 548.877H757.485L758.234 502.75L780.907 467.681L758.291 499.282Z" fill="#3F3D56"/>
<path d="M89.5412 548.466C87.6441 549.522 85.6428 550.379 83.5693 551.024C79.8607 552.037 75.8967 551.665 72.1507 552.53C70.617 552.884 68.9477 553.625 68.46 555.121C68.1022 556.219 68.4914 557.405 68.8641 558.497C73.0034 570.634 75.4983 583.519 82.0996 594.512C84.8739 599.13 88.3172 603.31 92.3174 606.917C93.8181 608.27 95.5188 609.593 97.5279 609.805C98.4538 609.903 99.3891 609.755 100.239 609.376C101.09 608.996 101.825 608.4 102.371 607.645C102.917 606.891 103.254 606.006 103.349 605.08C103.443 604.154 103.292 603.219 102.91 602.37C102.318 601.055 101.218 600.036 100.508 598.781C99.7389 597.181 99.2876 595.447 99.1797 593.676C98.5275 588.485 97.8992 583.06 99.6977 578.147C100.904 574.852 103.117 572.044 104.96 569.058C106.803 566.072 108.335 562.652 107.925 559.168C107.645 556.79 106.485 554.613 105.259 552.556C104.032 550.495 101.605 544.956 99.138 544.268C96.5774 543.554 91.7743 547.322 89.5412 548.466Z" fill="#2F2E41"/>
<path d="M157.041 590.387C157.079 591.562 156.916 592.734 156.556 593.853C155.784 595.892 153.868 597.289 152.879 599.232C151.502 601.934 152.126 605.201 153.038 608.093C153.61 609.906 154.36 611.793 155.895 612.915C157.208 613.728 158.701 614.207 160.243 614.307C173.413 616.13 186.792 615.084 200.083 615.466C202.505 615.536 205.07 615.62 207.184 614.437C209.299 613.253 210.606 610.277 209.168 608.326C207.877 606.575 205.323 606.591 203.15 606.488C197.489 606.2 192.099 603.98 187.878 600.197C187.046 599.486 186.324 598.655 185.736 597.731C185.284 596.912 184.909 596.052 184.616 595.163C182.753 590.116 180.536 585.207 177.983 580.472C177.268 579.146 176.459 577.766 175.131 577.057C174.158 576.615 173.103 576.385 172.035 576.381C168.722 576.166 160.145 575.039 157.583 577.615C155.216 579.995 157.093 587.365 157.041 590.387Z" fill="#2F2E41"/>
<path d="M177.424 296.249C189.109 296.249 198.582 286.776 198.582 275.091C198.582 263.406 189.109 253.933 177.424 253.933C165.739 253.933 156.266 263.406 156.266 275.091C156.266 286.776 165.739 296.249 177.424 296.249Z" fill="#FBBEBE"/>
<path d="M158.318 292.562C157.059 295.931 154.925 299.095 151.818 300.908L181.082 306.878C180.02 302.607 179.881 298.159 180.672 293.829C180.962 292.781 181.022 291.683 180.847 290.61C180.296 288.487 177.906 287.465 175.768 286.977C170.427 285.76 165.704 285.107 160.741 282.748C159.224 285.345 159.436 289.568 158.318 292.562Z" fill="#FBBEBE"/>
<path d="M151.573 292.986C154.721 291.562 158.151 290.869 161.605 290.959C165.06 291.049 168.448 291.921 171.518 293.508C175.27 295.485 178.376 298.469 181.428 301.413C184.241 304.127 187.243 307.235 187.442 311.139C187.539 313.03 186.949 314.88 186.651 316.75C186.115 320.617 186.796 324.556 188.599 328.019C190.402 331.483 193.238 334.299 196.713 336.079C199.038 339.951 199.518 344.643 199.553 349.16C199.688 366.273 194.289 383.598 198.144 400.272C199.049 404.187 200.452 407.979 201.234 411.92C202.247 417.025 202.197 422.275 202.727 427.452C203.301 433.059 204.555 438.575 206.461 443.879C205.187 445.904 202.537 446.681 200.15 446.517C197.763 446.353 195.531 445.317 193.401 444.227C183.088 438.95 173.642 431.991 162.96 427.505C155.893 424.538 148.365 422.69 141.509 419.262C134.653 415.835 128.277 410.396 126.181 403.024C125.275 399.836 125.219 396.477 125.17 393.163C124.961 379.206 124.768 365.096 127.806 351.472C130.485 339.457 135.649 327.963 136.776 315.705C137.143 311.715 137.151 307.443 139.38 304.114C142.531 299.408 149.335 298.189 151.573 292.986Z" fill="#2F2E41"/>
<path d="M165.39 275.39C166.636 273.764 169.041 273.542 171.033 274.023C173.024 274.504 174.861 275.53 176.872 275.921C177.33 276.05 177.809 276.083 178.28 276.017C178.75 275.951 179.202 275.787 179.606 275.537C180.309 274.844 180.73 273.915 180.786 272.929C181.49 268.737 181.655 264.472 181.275 260.238C181.171 259.644 181.21 259.033 181.391 258.458C181.889 257.258 183.409 256.972 184.65 256.587C186.697 255.895 188.456 254.541 189.647 252.738C190.839 250.935 191.396 248.787 191.231 246.632C191.2 245.599 190.766 244.618 190.021 243.901C189.163 243.201 187.962 243.158 186.855 243.149C181.168 243.104 175.48 243.105 169.792 243.154C167.687 243.172 165.476 243.223 163.651 244.273C162.302 245.049 161.299 246.298 160.088 247.275C156.929 249.824 152.655 250.343 148.812 251.65C146.936 252.184 145.232 253.2 143.87 254.597C142.592 256.057 141.978 258.228 142.78 259.995C143.192 260.731 143.653 261.44 144.158 262.115C146.425 265.74 144.916 270.442 145.255 274.704C145.677 280.026 153.553 288.66 158.894 289.919C167.517 291.953 162.535 278.883 165.39 275.39Z" fill="#2F2E41"/>
<path d="M153.446 508.736C153.99 512.622 154.688 516.522 154.502 520.441C154.241 525.913 152.268 531.185 151.903 536.652C151.63 540.734 152.261 544.861 151.694 548.913C151.331 551.508 150.485 554.009 149.961 556.576C149.131 560.759 149.155 565.067 150.03 569.241C150.904 573.415 152.613 577.369 155.053 580.867C155.411 581.466 155.921 581.96 156.53 582.299C157.115 582.516 157.741 582.599 158.361 582.542C164.52 582.416 170.662 581.858 176.741 580.871C177.186 580.853 177.608 580.667 177.922 580.35C178.059 580.141 178.146 579.902 178.178 579.654C179.305 573.859 176.734 568.048 176.081 562.181C175.383 555.916 176.886 549.637 178.378 543.513C179.055 540.491 179.9 537.51 180.91 534.584C181.631 532.614 182.502 530.698 183.128 528.696C184.013 525.55 184.552 522.318 184.735 519.055C185.17 513.907 185.399 508.747 185.425 503.575C185.573 498.674 185.165 493.772 184.209 488.963C182.838 482.875 180.03 477.221 177.246 471.635C175.758 471.991 174.36 472.656 173.144 473.585C169.557 475.908 165.811 477.977 161.935 479.777C159.33 480.987 154.251 481.846 152.598 484.367C150.968 486.853 152.02 491.926 152.145 494.668C152.358 499.374 152.792 504.063 153.446 508.736Z" fill="#2F2E41"/>
<path opacity="0.1" d="M153.446 508.736C153.99 512.622 154.688 516.522 154.502 520.441C154.241 525.913 152.268 531.185 151.903 536.652C151.63 540.734 152.261 544.861 151.694 548.913C151.331 551.508 150.485 554.009 149.961 556.576C149.131 560.759 149.155 565.067 150.03 569.241C150.904 573.415 152.613 577.369 155.053 580.867C155.411 581.466 155.921 581.96 156.53 582.299C157.115 582.516 157.741 582.599 158.361 582.542C164.52 582.416 170.662 581.858 176.741 580.871C177.186 580.853 177.608 580.667 177.922 580.35C178.059 580.141 178.146 579.902 178.178 579.654C179.305 573.859 176.734 568.048 176.081 562.181C175.383 555.916 176.886 549.637 178.378 543.513C179.055 540.491 179.9 537.51 180.91 534.584C181.631 532.614 182.502 530.698 183.128 528.696C184.013 525.55 184.552 522.318 184.735 519.055C185.17 513.907 185.399 508.747 185.425 503.575C185.573 498.674 185.165 493.772 184.209 488.963C182.838 482.875 180.03 477.221 177.246 471.635C175.758 471.991 174.36 472.656 173.144 473.585C169.557 475.908 165.811 477.977 161.935 479.777C159.33 480.987 154.251 481.846 152.598 484.367C150.968 486.853 152.02 491.926 152.145 494.668C152.358 499.374 152.792 504.063 153.446 508.736Z" fill="black"/>
<path d="M124.841 425.734C122.031 433.299 126.161 441.473 129.749 448.701C138.589 466.509 144.728 485.51 150.834 504.43C151.291 505.848 151.748 507.394 151.238 508.793C150.798 509.787 150.083 510.635 149.178 511.237C144.968 514.435 139.607 515.574 134.592 517.247C129.745 518.864 125.103 521.04 120.759 523.731C117.125 525.983 113.721 528.582 110.323 531.177L99.5071 539.438C98.8068 539.911 98.1949 540.504 97.6992 541.188C96.656 542.825 97.0833 544.961 97.6027 546.832C98.9781 551.783 100.749 556.616 102.898 561.284C103.252 562.307 103.925 563.19 104.819 563.801C106.507 564.708 108.572 563.505 109.861 562.087C111.15 560.669 112.265 558.904 114.083 558.295C115.898 557.687 117.896 558.424 119.791 558.157C122.857 557.727 124.893 554.903 127.103 552.734C136.132 543.876 151.208 544.518 161.14 536.686C162.576 535.401 164.096 534.214 165.691 533.132C167.37 532.139 169.274 531.594 171.016 530.717C176.315 528.049 179.646 522.532 181.431 516.874C183.216 511.216 183.724 505.243 185.007 499.451C185.67 496.456 186.542 493.494 186.837 490.441C187.027 487.601 186.965 484.75 186.652 481.922L183.068 437.586C182.777 433.976 182.484 430.362 181.918 426.785C171.274 427.166 160.637 427.594 149.987 427.72C141.512 427.82 132.882 428.413 124.841 425.734Z" fill="#2F2E41"/>
<path d="M120.926 436.106C122.37 438.428 125.885 438.38 128.305 437.107C130.725 435.834 132.605 433.695 135.031 432.433C138.29 430.737 142.147 430.8 145.821 430.904C151.636 431.068 157.522 431.243 163.117 432.837C168.904 434.485 174.538 437.659 180.522 437.026C181.563 436.915 182.701 436.617 183.268 435.736C183.6 435.099 183.756 434.384 183.72 433.666L183.916 428.438C184.036 427.534 183.891 426.614 183.5 425.791C182.998 425.105 182.309 424.578 181.517 424.272C173 420.149 163.287 419.382 153.83 419.058C149.023 418.893 144.214 418.825 139.403 418.854C135.32 418.879 130.419 418.289 126.449 419.379C121.122 420.844 118.224 431.76 120.926 436.106Z" fill="#2F2E41"/>
<path d="M174.406 299.193C163.246 299.094 153.134 291.728 141.975 291.548C140.627 291.455 139.276 291.688 138.037 292.228C136.482 293.011 135.46 294.526 134.279 295.805C130.98 299.378 126.202 301.285 122.812 304.773C119.634 308.043 117.867 312.914 119.121 317.298C120.376 321.682 125.112 325.045 129.548 323.991C131.336 318.205 135.025 313.193 140.017 309.767C142.615 308.1 145.353 306.663 148.2 305.471C153.215 303.199 158.823 300.883 164.059 302.587C165.99 303.316 167.81 304.309 169.469 305.537L178.198 311.401C177.181 307.389 176.266 302.89 174.406 299.193Z" fill="#5E17EB"/>
<path d="M128.263 320.112C126.782 321.96 128.916 324.639 128.589 326.986C128.372 328.545 127.089 329.735 126.555 331.216C126.002 332.75 126.295 334.449 126.085 336.066C125.875 337.241 125.563 338.397 125.154 339.519C124.214 342.872 123.558 346.298 123.192 349.761L121.239 364.348C120.9 366.543 120.694 368.757 120.621 370.977C120.72 372.636 120.609 374.301 120.291 375.933C119.859 377.527 118.901 378.921 118.257 380.442C117.612 381.963 117.314 383.803 118.184 385.206C115.269 387.634 114.403 392.402 116.441 395.601C116.829 396.1 117.132 396.658 117.339 397.255C117.452 398.09 117.314 398.939 116.944 399.694L114.968 404.957C114.463 406.304 114.303 408.355 115.709 408.662C114.544 409.871 113.637 411.304 113.042 412.873C112.754 413.661 112.667 414.509 112.791 415.339C112.915 416.169 113.246 416.955 113.752 417.624C114.243 418.054 114.661 418.561 114.99 419.125C115.183 419.911 115.133 420.737 114.847 421.494C114.551 422.643 114.494 423.841 114.679 425.013C114.864 426.185 115.287 427.307 115.922 428.309C116.58 429.298 117.512 430.074 118.604 430.542C119.695 431.01 120.9 431.15 122.07 430.944C126.021 430.053 129.571 428.646 133.554 429.377C142.132 430.951 150.736 432.532 159.044 435.184C168.525 438.211 177.705 442.65 187.614 443.582C188.266 443.715 188.945 443.61 189.525 443.285C190.03 442.806 190.344 442.161 190.409 441.468C191.43 436.682 192.45 431.895 193.471 427.109C194.705 421.803 195.645 416.433 196.287 411.023C196.635 407.532 196.735 404.021 196.834 400.514L197.623 372.596C197.993 368.482 197.444 364.337 196.016 360.46L191.476 345.967C188.885 337.695 182.942 330.361 180.825 321.956C179.486 316.636 178.497 310.927 174.905 306.781C169.784 300.87 160.925 299.95 153.171 300.967C149.667 301.426 146.134 302.218 143.104 304.035C139.6 306.136 137.019 309.445 134.522 312.678C132.464 315.343 130.369 317.485 128.263 320.112Z" fill="#5E17EB"/>
<path d="M146.369 402.225C147.007 404.98 148.349 407.52 149.17 410.226C150.546 414.76 150.43 419.643 151.803 424.177C152.379 426.081 153.215 427.908 153.628 429.853C154.593 434.388 153.185 439.08 151.435 443.374C149.686 447.668 147.555 451.902 146.987 456.503C146.587 459.744 147.162 463.404 149.66 465.507C152.253 467.691 156.022 467.543 159.4 467.252C160.613 467.218 161.81 466.969 162.935 466.516C165.519 465.294 166.607 462.237 167.211 459.444C169.234 450.083 168.656 440.381 168.068 430.822L166.53 405.823C166.234 401.01 165.917 396.098 164.434 391.477C163.894 389.796 162.954 386.399 161.419 385.325C159.898 384.262 155.555 384.215 153.672 384.126C144.838 383.712 144.937 396.042 146.369 402.225Z" fill="#FBBEBE"/>
<path d="M156.157 309.925C154.352 308.98 152.079 309.387 150.335 310.439C148.652 311.592 147.177 313.024 145.975 314.673C142.076 319.432 137.949 324.893 138.527 331.017C138.744 333.314 139.623 335.487 140.219 337.715C142.833 347.485 139.943 357.818 140.274 367.927C140.466 373.767 141.737 379.513 143.003 385.218C143.261 386.382 143.675 387.73 144.801 388.122C145.647 388.417 146.561 388.038 147.399 387.72C150.519 386.567 153.87 386.182 157.17 386.598C160.47 387.014 163.621 388.218 166.358 390.109C168.45 388.993 167.666 385.463 167.197 383.139C165.803 376.232 167.695 369.108 169.992 362.447C172.29 355.787 175.039 349.135 175.419 342.1C175.851 334.129 173.208 326.349 170.6 318.804C170.031 317.157 169.409 315.43 168.089 314.292C166.959 313.452 165.664 312.86 164.29 312.556C161.52 311.738 158.715 311.265 156.157 309.925Z" fill="#2F2E41"/>
</g>
<defs>
<clipPath id="clip0">
<rect width="822.376" height="624.343" fill="white"/>
</clipPath>
</defs>
</svg>
