<svg width="823" height="625" viewBox="0 0 823 625" fill="none" xmlns="http://www.w3.org/2000/svg">
<g clip-path="url(#clip0)">
<path d="M397.874 552.005C220.868 538.535 9.78021 401.384 20.527 260.165C31.2738 118.946 235.714 -12.5172 412.72 0.952964C589.726 14.4231 691.617 278.338 680.87 419.557C670.123 560.776 574.88 565.476 397.874 552.005Z" fill="white"/>
<path d="M412.719 574.688C616.785 574.688 782.213 564.553 782.213 552.051C782.213 539.549 616.785 529.414 412.719 529.414C208.653 529.414 43.2246 539.549 43.2246 552.051C43.2246 564.553 208.653 574.688 412.719 574.688Z" fill="#3F3D56"/>
<path opacity="0.1" d="M412.719 566.655C586.538 566.655 727.446 559.953 727.446 551.685C727.446 543.418 586.538 536.716 412.719 536.716C238.899 536.716 97.9912 543.418 97.9912 551.685C97.9912 559.953 238.899 566.655 412.719 566.655Z" fill="black"/>
<path d="M154.949 624.343C240.525 624.343 309.898 618.294 309.898 610.833C309.898 603.373 240.525 597.324 154.949 597.324C69.3731 597.324 0 603.373 0 610.833C0 618.294 69.3731 624.343 154.949 624.343Z" fill="#3F3D56"/>
<path opacity="0.1" d="M154.949 619.55C227.841 619.55 286.932 615.55 286.932 610.616C286.932 605.682 227.841 601.683 154.949 601.683C82.0573 601.683 22.9668 605.682 22.9668 610.616C22.9668 615.55 82.0573 619.55 154.949 619.55Z" fill="black"/>
<path d="M692.395 118.297H143.266V549.13H692.395V118.297Z" fill="#3F3D56"/>
<path d="M411.583 177.174H276.113C275.897 177.174 275.683 177.132 275.483 177.05C275.283 176.967 275.102 176.846 274.949 176.694C274.796 176.541 274.674 176.359 274.591 176.16C274.508 175.96 274.466 175.746 274.466 175.53C274.466 175.314 274.508 175.1 274.591 174.9C274.674 174.7 274.796 174.519 274.949 174.366C275.102 174.213 275.283 174.092 275.483 174.01C275.683 173.927 275.897 173.885 276.113 173.886H411.583C412.019 173.887 412.436 174.06 412.743 174.369C413.051 174.677 413.224 175.094 413.224 175.53C413.224 175.965 413.051 176.383 412.743 176.691C412.436 176.999 412.019 177.173 411.583 177.174Z" fill="#F2F2F2"/>
<path d="M559.876 195.259H346.807C346.371 195.259 345.953 195.086 345.645 194.777C345.336 194.469 345.163 194.051 345.163 193.615C345.163 193.179 345.336 192.761 345.645 192.452C345.953 192.144 346.371 191.971 346.807 191.971H559.876C560.092 191.971 560.306 192.013 560.505 192.096C560.705 192.178 560.886 192.3 561.039 192.452C561.191 192.605 561.312 192.786 561.395 192.986C561.478 193.185 561.52 193.399 561.52 193.615C561.52 193.831 561.478 194.044 561.395 194.244C561.312 194.443 561.191 194.625 561.039 194.777C560.886 194.93 560.705 195.051 560.505 195.134C560.306 195.216 560.092 195.259 559.876 195.259Z" fill="#F2F2F2"/>
<path d="M412.241 213.343H276.771C276.335 213.343 275.917 213.17 275.608 212.861C275.3 212.553 275.127 212.135 275.127 211.699C275.127 211.263 275.3 210.845 275.608 210.536C275.917 210.228 276.335 210.055 276.771 210.055H412.241C412.677 210.055 413.095 210.228 413.403 210.536C413.712 210.845 413.885 211.263 413.885 211.699C413.885 212.135 413.712 212.553 413.403 212.861C413.095 213.17 412.677 213.343 412.241 213.343Z" fill="#F2F2F2"/>
<path d="M559.877 213.672H424.407C423.971 213.672 423.553 213.499 423.244 213.19C422.936 212.882 422.763 212.464 422.763 212.028C422.763 211.592 422.936 211.174 423.244 210.865C423.553 210.557 423.971 210.384 424.407 210.384H559.877C560.313 210.384 560.731 210.557 561.039 210.865C561.347 211.174 561.521 211.592 561.521 212.028C561.521 212.464 561.347 212.882 561.039 213.19C560.731 213.499 560.313 213.672 559.877 213.672Z" fill="#F2F2F2"/>
<path d="M412.57 231.428H277.1C276.664 231.428 276.246 231.255 275.938 230.946C275.629 230.638 275.456 230.22 275.456 229.784C275.456 229.348 275.629 228.929 275.938 228.621C276.246 228.313 276.664 228.14 277.1 228.14H412.57C413.006 228.14 413.424 228.313 413.732 228.621C414.041 228.929 414.214 229.348 414.214 229.784C414.214 230.22 414.041 230.638 413.732 230.946C413.424 231.255 413.006 231.428 412.57 231.428Z" fill="#F2F2F2"/>
<path d="M412.898 249.513H277.428C276.992 249.513 276.574 249.34 276.266 249.031C275.957 248.723 275.784 248.305 275.784 247.869C275.784 247.433 275.957 247.014 276.266 246.706C276.574 246.398 276.992 246.225 277.428 246.225H412.898C413.334 246.225 413.752 246.398 414.061 246.706C414.369 247.014 414.542 247.433 414.542 247.869C414.542 248.305 414.369 248.723 414.061 249.031C413.752 249.34 413.334 249.513 412.898 249.513Z" fill="#F2F2F2"/>
<path d="M474.386 177.503H435.586C435.15 177.503 434.732 177.33 434.424 177.021C434.116 176.713 433.942 176.295 433.942 175.859C433.942 175.423 434.116 175.005 434.424 174.696C434.732 174.388 435.15 174.215 435.586 174.215H474.386C474.822 174.215 475.24 174.388 475.549 174.696C475.857 175.005 476.03 175.423 476.03 175.859C476.03 176.295 475.857 176.713 475.549 177.021C475.24 177.33 474.822 177.503 474.386 177.503Z" fill="#F2F2F2"/>
<path d="M474.386 231.428H435.586C435.15 231.428 434.732 231.255 434.424 230.946C434.116 230.638 433.942 230.22 433.942 229.784C433.942 229.348 434.116 228.929 434.424 228.621C434.732 228.313 435.15 228.14 435.586 228.14H474.386C474.822 228.14 475.24 228.313 475.549 228.621C475.857 228.929 476.03 229.348 476.03 229.784C476.03 230.22 475.857 230.638 475.549 230.946C475.24 231.255 474.822 231.428 474.386 231.428Z" fill="#F2F2F2"/>
<path d="M474.386 249.184H435.586C435.37 249.184 435.156 249.142 434.956 249.059C434.756 248.977 434.574 248.856 434.421 248.703C434.268 248.551 434.147 248.369 434.064 248.17C433.981 247.97 433.938 247.756 433.938 247.54C433.938 247.323 433.981 247.109 434.064 246.91C434.147 246.71 434.268 246.529 434.421 246.376C434.574 246.223 434.756 246.102 434.956 246.02C435.156 245.937 435.37 245.895 435.586 245.896H474.386C474.602 245.895 474.816 245.937 475.016 246.02C475.216 246.102 475.397 246.223 475.55 246.376C475.703 246.529 475.825 246.71 475.908 246.91C475.991 247.109 476.033 247.323 476.033 247.54C476.033 247.756 475.991 247.97 475.908 248.17C475.825 248.369 475.703 248.551 475.55 248.703C475.397 248.856 475.216 248.977 475.016 249.059C474.816 249.142 474.602 249.184 474.386 249.184Z" fill="#F2F2F2"/>
<path d="M539.49 249.184H500.69C500.255 249.183 499.838 249.009 499.53 248.701C499.223 248.393 499.05 247.975 499.05 247.54C499.05 247.104 499.223 246.686 499.53 246.378C499.838 246.07 500.255 245.896 500.69 245.896H539.49C539.706 245.895 539.92 245.937 540.12 246.02C540.32 246.102 540.502 246.223 540.655 246.376C540.808 246.529 540.929 246.71 541.012 246.91C541.095 247.109 541.137 247.323 541.137 247.54C541.137 247.756 541.095 247.97 541.012 248.17C540.929 248.369 540.808 248.551 540.655 248.703C540.502 248.856 540.32 248.977 540.12 249.059C539.92 249.142 539.706 249.184 539.49 249.184Z" fill="#F2F2F2"/>
<path d="M314.584 195.259H275.785C275.349 195.259 274.93 195.086 274.622 194.777C274.314 194.469 274.141 194.051 274.141 193.615C274.141 193.179 274.314 192.761 274.622 192.452C274.93 192.144 275.349 191.971 275.785 191.971H314.584C315.02 191.971 315.438 192.144 315.747 192.452C316.055 192.761 316.228 193.179 316.228 193.615C316.228 194.051 316.055 194.469 315.747 194.777C315.438 195.086 315.02 195.259 314.584 195.259Z" fill="#F2F2F2"/>
<path d="M411.748 443.511H276.278C275.842 443.511 275.424 443.338 275.115 443.029C274.807 442.721 274.634 442.303 274.634 441.867C274.634 441.431 274.807 441.013 275.115 440.704C275.424 440.396 275.842 440.223 276.278 440.223H411.748C412.184 440.223 412.602 440.396 412.91 440.704C413.219 441.013 413.392 441.431 413.392 441.867C413.392 442.303 413.219 442.721 412.91 443.029C412.602 443.338 412.184 443.511 411.748 443.511Z" fill="#F2F2F2"/>
<path d="M411.089 479.68H275.62C275.184 479.68 274.765 479.506 274.457 479.198C274.149 478.89 273.976 478.472 273.976 478.036C273.976 477.6 274.149 477.181 274.457 476.873C274.765 476.565 275.184 476.392 275.62 476.392H411.089C411.525 476.392 411.944 476.565 412.252 476.873C412.56 477.181 412.734 477.6 412.734 478.036C412.734 478.472 412.56 478.89 412.252 479.198C411.944 479.506 411.525 479.68 411.089 479.68Z" fill="#F2F2F2"/>
<path d="M411.419 497.764H275.949C275.733 497.764 275.519 497.722 275.319 497.639C275.119 497.557 274.938 497.436 274.785 497.283C274.631 497.131 274.51 496.949 274.427 496.75C274.344 496.55 274.302 496.336 274.302 496.12C274.302 495.903 274.344 495.689 274.427 495.49C274.51 495.29 274.631 495.109 274.785 494.956C274.938 494.803 275.119 494.682 275.319 494.6C275.519 494.517 275.733 494.475 275.949 494.476H411.419C411.635 494.475 411.849 494.517 412.049 494.6C412.249 494.682 412.431 494.803 412.584 494.956C412.737 495.109 412.858 495.29 412.941 495.49C413.024 495.689 413.067 495.903 413.067 496.12C413.067 496.336 413.024 496.55 412.941 496.75C412.858 496.949 412.737 497.131 412.584 497.283C412.431 497.436 412.249 497.557 412.049 497.639C411.849 497.722 411.635 497.764 411.419 497.764Z" fill="#F2F2F2"/>
<path d="M469.289 480.008H430.49C430.054 480.008 429.636 479.835 429.327 479.526C429.019 479.218 428.846 478.8 428.846 478.364C428.846 477.928 429.019 477.51 429.327 477.201C429.636 476.893 430.054 476.72 430.49 476.72H469.289C469.725 476.72 470.144 476.893 470.452 477.201C470.76 477.51 470.933 477.928 470.933 478.364C470.933 478.8 470.76 479.218 470.452 479.526C470.144 479.835 469.725 480.008 469.289 480.008Z" fill="#F2F2F2"/>
<path d="M469.289 497.764H430.49C430.054 497.764 429.636 497.59 429.327 497.282C429.019 496.974 428.846 496.556 428.846 496.12C428.846 495.684 429.019 495.265 429.327 494.957C429.636 494.649 430.054 494.476 430.49 494.476H469.289C469.725 494.476 470.144 494.649 470.452 494.957C470.76 495.265 470.933 495.684 470.933 496.12C470.933 496.556 470.76 496.974 470.452 497.282C470.144 497.59 469.725 497.764 469.289 497.764Z" fill="#F2F2F2"/>
<path d="M534.394 480.008H495.594C495.158 480.008 494.74 479.835 494.432 479.526C494.123 479.218 493.95 478.8 493.95 478.364C493.95 477.928 494.123 477.51 494.432 477.201C494.74 476.893 495.158 476.72 495.594 476.72H534.394C534.83 476.72 535.248 476.893 535.556 477.201C535.865 477.51 536.038 477.928 536.038 478.364C536.038 478.8 535.865 479.218 535.556 479.526C535.248 479.835 534.83 480.008 534.394 480.008Z" fill="#F2F2F2"/>
<path d="M560.041 461.595H346.972C346.536 461.595 346.118 461.422 345.81 461.113C345.501 460.805 345.328 460.387 345.328 459.951C345.328 459.515 345.501 459.096 345.81 458.788C346.118 458.48 346.536 458.307 346.972 458.307H560.041C560.477 458.307 560.895 458.48 561.204 458.788C561.512 459.096 561.685 459.515 561.685 459.951C561.685 460.387 561.512 460.805 561.204 461.113C560.895 461.422 560.477 461.595 560.041 461.595Z" fill="#F2F2F2"/>
<path d="M314.748 461.595H275.949C275.513 461.595 275.095 461.422 274.786 461.113C274.478 460.805 274.305 460.387 274.305 459.951C274.305 459.515 274.478 459.096 274.786 458.788C275.095 458.48 275.513 458.307 275.949 458.307H314.748C315.184 458.307 315.603 458.48 315.911 458.788C316.219 459.096 316.392 459.515 316.392 459.951C316.392 460.387 316.219 460.805 315.911 461.113C315.603 461.422 315.184 461.595 314.748 461.595Z" fill="#F2F2F2"/>
<path d="M560.041 516.178H346.972C346.756 516.178 346.541 516.136 346.342 516.054C346.142 515.971 345.96 515.85 345.807 515.697C345.654 515.545 345.533 515.363 345.45 515.164C345.367 514.964 345.324 514.75 345.324 514.534C345.324 514.318 345.367 514.103 345.45 513.904C345.533 513.704 345.654 513.523 345.807 513.37C345.96 513.217 346.142 513.096 346.342 513.014C346.541 512.931 346.756 512.889 346.972 512.89H560.041C560.477 512.89 560.895 513.063 561.203 513.371C561.512 513.68 561.685 514.098 561.685 514.534C561.685 514.97 561.512 515.388 561.203 515.696C560.895 516.005 560.477 516.178 560.041 516.178Z" fill="#F2F2F2"/>
<path d="M314.749 516.178H275.949C275.733 516.178 275.519 516.136 275.319 516.054C275.119 515.971 274.938 515.85 274.785 515.697C274.631 515.545 274.51 515.363 274.427 515.164C274.344 514.964 274.302 514.75 274.302 514.534C274.302 514.318 274.344 514.103 274.427 513.904C274.51 513.704 274.631 513.523 274.785 513.37C274.938 513.217 275.119 513.096 275.319 513.014C275.519 512.931 275.733 512.889 275.949 512.89H314.749C314.965 512.889 315.179 512.931 315.379 513.014C315.579 513.096 315.761 513.217 315.914 513.37C316.067 513.523 316.188 513.704 316.271 513.904C316.354 514.103 316.396 514.318 316.396 514.534C316.396 514.75 316.354 514.964 316.271 515.164C316.188 515.363 316.067 515.545 315.914 515.697C315.761 515.85 315.579 515.971 315.379 516.054C315.179 516.136 314.965 516.178 314.749 516.178Z" fill="#F2F2F2"/>
<path d="M379.031 292.916L326.421 344.868L379.031 396.82L390.868 384.983L351.082 345.197L391.196 305.082L379.031 292.916Z" fill="#5E17EB"/>
<path d="M456.629 292.916L509.239 344.868L456.629 396.82L444.792 384.983L484.579 345.197L444.464 305.082L456.629 292.916Z" fill="#5E17EB"/>
<path d="M157.87 135.822C161.5 135.822 164.442 132.879 164.442 129.25C164.442 125.62 161.5 122.678 157.87 122.678C154.24 122.678 151.298 125.62 151.298 129.25C151.298 132.879 154.24 135.822 157.87 135.822Z" fill="#5E17EB"/>
<path d="M175.395 135.822C179.025 135.822 181.967 132.879 181.967 129.25C181.967 125.62 179.025 122.678 175.395 122.678C171.766 122.678 168.823 125.62 168.823 129.25C168.823 132.879 171.766 135.822 175.395 135.822Z" fill="#5E17EB"/>
<path d="M192.921 135.822C196.55 135.822 199.493 132.879 199.493 129.25C199.493 125.62 196.55 122.678 192.921 122.678C189.291 122.678 186.349 125.62 186.349 129.25C186.349 132.879 189.291 135.822 192.921 135.822Z" fill="#5E17EB"/>
<path opacity="0.1" d="M692.395 140.203H143.266V142.394H692.395V140.203Z" fill="black"/>
<path d="M822.376 443.578C822.376 490.145 794.692 506.405 760.543 506.405C726.393 506.405 698.71 490.145 698.71 443.578C698.71 397.01 760.543 337.77 760.543 337.77C760.543 337.77 822.376 397.01 822.376 443.578Z" fill="white"/>
<path d="M758.29 499.282L758.923 460.309L785.278 412.094L759.023 454.196L759.307 436.672L777.47 401.789L759.383 432.035L759.895 400.517L779.344 372.746L759.975 395.561L760.295 337.771L758.284 414.276L758.449 411.119L738.675 380.851L758.133 417.178L756.29 452.377L756.235 451.443L733.438 419.589L756.166 454.743L755.936 459.145L755.894 459.211L755.913 459.573L751.238 548.877H757.484L758.233 502.75L780.906 467.681L758.29 499.282Z" fill="#3F3D56"/>
<path d="M89.5412 548.466C87.6441 549.522 85.6428 550.379 83.5693 551.024C79.8607 552.037 75.8967 551.665 72.1507 552.53C70.617 552.884 68.9477 553.625 68.46 555.121C68.1022 556.219 68.4914 557.405 68.8641 558.497C73.0034 570.634 75.4983 583.519 82.0996 594.512C84.8739 599.13 88.3172 603.31 92.3174 606.917C93.8181 608.27 95.5188 609.593 97.5279 609.805C98.4538 609.903 99.3891 609.755 100.239 609.376C101.09 608.996 101.825 608.4 102.371 607.645C102.917 606.891 103.254 606.006 103.349 605.08C103.443 604.154 103.292 603.219 102.91 602.37C102.318 601.055 101.218 600.036 100.508 598.781C99.7389 597.181 99.2876 595.447 99.1797 593.676C98.5275 588.485 97.8992 583.06 99.6977 578.147C100.904 574.852 103.117 572.044 104.96 569.058C106.803 566.072 108.335 562.652 107.925 559.168C107.645 556.79 106.485 554.613 105.259 552.556C104.032 550.495 101.605 544.956 99.138 544.268C96.5774 543.554 91.7743 547.322 89.5412 548.466Z" fill="#2F2E41"/>
<path d="M157.04 590.387C157.078 591.562 156.915 592.734 156.555 593.853C155.783 595.892 153.868 597.289 152.878 599.232C151.501 601.934 152.125 605.201 153.037 608.093C153.609 609.906 154.359 611.793 155.894 612.915C157.207 613.728 158.7 614.207 160.242 614.307C173.412 616.13 186.791 615.084 200.082 615.466C202.504 615.536 205.069 615.62 207.183 614.437C209.298 613.253 210.605 610.277 209.167 608.326C207.876 606.575 205.322 606.591 203.149 606.488C197.488 606.2 192.098 603.98 187.877 600.197C187.045 599.486 186.323 598.655 185.735 597.731C185.283 596.912 184.908 596.052 184.615 595.163C182.752 590.116 180.535 585.207 177.982 580.472C177.267 579.146 176.458 577.766 175.13 577.057C174.157 576.615 173.102 576.385 172.034 576.381C168.721 576.166 160.144 575.039 157.582 577.615C155.215 579.995 157.092 587.365 157.04 590.387Z" fill="#2F2E41"/>
<path d="M177.424 296.249C189.109 296.249 198.582 286.776 198.582 275.091C198.582 263.406 189.109 253.933 177.424 253.933C165.739 253.933 156.266 263.406 156.266 275.091C156.266 286.776 165.739 296.249 177.424 296.249Z" fill="#FBBEBE"/>
<path d="M158.317 292.562C157.058 295.931 154.924 299.095 151.817 300.908L181.081 306.878C180.019 302.607 179.88 298.159 180.671 293.829C180.961 292.781 181.021 291.683 180.846 290.61C180.295 288.487 177.906 287.465 175.767 286.977C170.426 285.76 165.703 285.107 160.74 282.748C159.223 285.345 159.435 289.568 158.317 292.562Z" fill="#FBBEBE"/>
<path d="M151.573 292.986C154.721 291.562 158.151 290.869 161.605 290.959C165.06 291.049 168.448 291.921 171.518 293.508C175.27 295.485 178.376 298.469 181.428 301.413C184.241 304.127 187.243 307.235 187.442 311.139C187.539 313.03 186.949 314.88 186.651 316.75C186.115 320.617 186.796 324.556 188.599 328.019C190.402 331.483 193.238 334.299 196.713 336.079C199.038 339.951 199.518 344.643 199.553 349.16C199.688 366.273 194.289 383.598 198.144 400.272C199.049 404.187 200.452 407.979 201.234 411.92C202.247 417.025 202.197 422.275 202.727 427.452C203.301 433.059 204.555 438.575 206.461 443.879C205.187 445.904 202.537 446.681 200.15 446.517C197.763 446.353 195.531 445.317 193.401 444.227C183.088 438.95 173.642 431.991 162.96 427.505C155.893 424.538 148.365 422.69 141.509 419.262C134.653 415.835 128.277 410.396 126.181 403.024C125.275 399.836 125.219 396.477 125.17 393.163C124.961 379.206 124.768 365.096 127.806 351.472C130.485 339.457 135.649 327.963 136.776 315.705C137.143 311.715 137.151 307.443 139.38 304.114C142.531 299.408 149.335 298.189 151.573 292.986Z" fill="#2F2E41"/>
<path d="M165.39 275.39C166.636 273.764 169.041 273.542 171.033 274.023C173.024 274.504 174.861 275.53 176.872 275.921C177.33 276.05 177.809 276.083 178.28 276.017C178.75 275.951 179.202 275.787 179.606 275.537C180.309 274.844 180.73 273.915 180.786 272.929C181.49 268.737 181.655 264.472 181.275 260.238C181.171 259.644 181.21 259.033 181.391 258.458C181.889 257.258 183.409 256.972 184.65 256.587C186.697 255.895 188.456 254.541 189.647 252.738C190.839 250.935 191.396 248.787 191.231 246.632C191.2 245.599 190.766 244.618 190.021 243.901C189.163 243.201 187.962 243.158 186.855 243.149C181.168 243.104 175.48 243.105 169.792 243.154C167.687 243.172 165.476 243.223 163.651 244.273C162.302 245.049 161.299 246.298 160.088 247.275C156.929 249.824 152.655 250.343 148.812 251.65C146.936 252.184 145.232 253.2 143.87 254.597C142.592 256.057 141.978 258.228 142.78 259.995C143.192 260.731 143.653 261.44 144.158 262.115C146.425 265.74 144.916 270.442 145.255 274.704C145.677 280.026 153.553 288.66 158.894 289.919C167.517 291.953 162.535 278.883 165.39 275.39Z" fill="#2F2E41"/>
<path d="M153.445 508.736C153.989 512.622 154.687 516.522 154.501 520.441C154.24 525.913 152.267 531.185 151.902 536.652C151.629 540.734 152.26 544.861 151.693 548.913C151.33 551.508 150.484 554.009 149.96 556.576C149.13 560.759 149.154 565.067 150.029 569.241C150.903 573.415 152.612 577.369 155.052 580.867C155.41 581.466 155.92 581.96 156.529 582.299C157.114 582.516 157.74 582.599 158.361 582.542C164.519 582.416 170.661 581.858 176.74 580.871C177.186 580.853 177.607 580.667 177.921 580.35C178.058 580.141 178.145 579.902 178.177 579.654C179.304 573.859 176.733 568.048 176.08 562.181C175.382 555.916 176.885 549.637 178.377 543.513C179.054 540.491 179.899 537.51 180.909 534.584C181.63 532.614 182.501 530.698 183.127 528.696C184.012 525.55 184.551 522.318 184.734 519.055C185.169 513.907 185.399 508.747 185.424 503.575C185.572 498.674 185.164 493.772 184.208 488.963C182.837 482.875 180.029 477.221 177.245 471.635C175.757 471.991 174.359 472.656 173.143 473.585C169.556 475.908 165.81 477.977 161.934 479.777C159.329 480.987 154.25 481.846 152.598 484.367C150.967 486.853 152.019 491.926 152.144 494.668C152.357 499.374 152.791 504.063 153.445 508.736Z" fill="#2F2E41"/>
<path opacity="0.1" d="M153.445 508.736C153.989 512.622 154.687 516.522 154.501 520.441C154.24 525.913 152.267 531.185 151.902 536.652C151.629 540.734 152.26 544.861 151.693 548.913C151.33 551.508 150.484 554.009 149.96 556.576C149.13 560.759 149.154 565.067 150.029 569.241C150.903 573.415 152.612 577.369 155.052 580.867C155.41 581.466 155.92 581.96 156.529 582.299C157.114 582.516 157.74 582.599 158.361 582.542C164.519 582.416 170.661 581.858 176.74 580.871C177.186 580.853 177.607 580.667 177.921 580.35C178.058 580.141 178.145 579.902 178.177 579.654C179.304 573.859 176.733 568.048 176.08 562.181C175.382 555.916 176.885 549.637 178.377 543.513C179.054 540.491 179.899 537.51 180.909 534.584C181.63 532.614 182.501 530.698 183.127 528.696C184.012 525.55 184.551 522.318 184.734 519.055C185.169 513.907 185.399 508.747 185.424 503.575C185.572 498.674 185.164 493.772 184.208 488.963C182.837 482.875 180.029 477.221 177.245 471.635C175.757 471.991 174.359 472.656 173.143 473.585C169.556 475.908 165.81 477.977 161.934 479.777C159.329 480.987 154.25 481.846 152.598 484.367C150.967 486.853 152.019 491.926 152.144 494.668C152.357 499.374 152.791 504.063 153.445 508.736Z" fill="black"/>
<path d="M124.841 425.734C122.031 433.299 126.161 441.473 129.749 448.701C138.589 466.509 144.728 485.51 150.834 504.43C151.291 505.848 151.748 507.394 151.238 508.793C150.798 509.787 150.083 510.635 149.178 511.237C144.968 514.435 139.607 515.574 134.592 517.247C129.745 518.864 125.103 521.04 120.759 523.731C117.125 525.983 113.721 528.582 110.323 531.177L99.5071 539.438C98.8068 539.911 98.1949 540.504 97.6992 541.188C96.656 542.825 97.0833 544.961 97.6027 546.832C98.9781 551.783 100.749 556.616 102.898 561.284C103.252 562.307 103.925 563.19 104.819 563.801C106.507 564.708 108.572 563.505 109.861 562.087C111.15 560.669 112.265 558.904 114.083 558.295C115.898 557.687 117.896 558.424 119.791 558.157C122.857 557.727 124.893 554.903 127.103 552.734C136.132 543.876 151.208 544.518 161.14 536.686C162.576 535.401 164.096 534.214 165.691 533.132C167.37 532.139 169.274 531.594 171.016 530.717C176.315 528.049 179.646 522.532 181.431 516.874C183.216 511.216 183.724 505.243 185.007 499.451C185.67 496.456 186.542 493.494 186.837 490.441C187.027 487.601 186.965 484.75 186.652 481.922L183.068 437.586C182.777 433.976 182.484 430.362 181.918 426.785C171.274 427.166 160.637 427.594 149.987 427.72C141.512 427.82 132.882 428.413 124.841 425.734Z" fill="#2F2E41"/>
<path d="M120.927 436.106C122.371 438.428 125.886 438.38 128.306 437.107C130.726 435.834 132.606 433.695 135.032 432.433C138.291 430.737 142.148 430.8 145.822 430.904C151.637 431.068 157.523 431.243 163.118 432.837C168.905 434.485 174.539 437.659 180.523 437.026C181.564 436.915 182.702 436.617 183.269 435.736C183.601 435.099 183.757 434.384 183.721 433.666L183.917 428.438C184.037 427.534 183.892 426.614 183.501 425.791C182.999 425.105 182.31 424.578 181.518 424.272C173.001 420.149 163.288 419.382 153.831 419.058C149.024 418.893 144.215 418.825 139.404 418.854C135.321 418.879 130.42 418.289 126.45 419.379C121.123 420.844 118.225 431.76 120.927 436.106Z" fill="#2F2E41"/>
<path d="M174.407 299.193C163.247 299.094 153.135 291.728 141.976 291.548C140.628 291.455 139.277 291.688 138.038 292.228C136.483 293.011 135.461 294.526 134.28 295.805C130.981 299.378 126.203 301.285 122.813 304.773C119.635 308.043 117.868 312.914 119.122 317.298C120.377 321.682 125.113 325.045 129.549 323.991C131.337 318.205 135.026 313.193 140.018 309.767C142.616 308.1 145.354 306.663 148.201 305.471C153.216 303.199 158.824 300.883 164.06 302.587C165.991 303.316 167.811 304.309 169.47 305.537L178.199 311.401C177.182 307.389 176.267 302.89 174.407 299.193Z" fill="#5E17EB"/>
<path d="M128.263 320.112C126.782 321.96 128.916 324.639 128.589 326.986C128.372 328.545 127.089 329.735 126.555 331.216C126.002 332.75 126.295 334.449 126.085 336.066C125.875 337.241 125.563 338.397 125.154 339.519C124.214 342.872 123.558 346.298 123.192 349.761L121.239 364.348C120.9 366.543 120.694 368.757 120.621 370.977C120.72 372.636 120.609 374.301 120.291 375.933C119.859 377.527 118.901 378.921 118.257 380.442C117.612 381.963 117.314 383.803 118.184 385.206C115.269 387.634 114.403 392.402 116.441 395.601C116.829 396.1 117.132 396.658 117.339 397.255C117.452 398.09 117.314 398.939 116.944 399.694L114.968 404.957C114.463 406.304 114.303 408.355 115.709 408.662C114.544 409.871 113.637 411.304 113.042 412.873C112.754 413.661 112.667 414.509 112.791 415.339C112.915 416.169 113.246 416.955 113.752 417.624C114.243 418.054 114.661 418.561 114.99 419.125C115.183 419.911 115.133 420.737 114.847 421.494C114.551 422.643 114.494 423.841 114.679 425.013C114.864 426.185 115.287 427.307 115.922 428.309C116.58 429.298 117.512 430.074 118.604 430.542C119.695 431.01 120.9 431.15 122.07 430.944C126.021 430.053 129.571 428.646 133.554 429.377C142.132 430.951 150.736 432.532 159.044 435.184C168.525 438.211 177.705 442.65 187.614 443.582C188.266 443.715 188.945 443.61 189.525 443.285C190.03 442.806 190.344 442.161 190.409 441.468C191.43 436.682 192.45 431.895 193.471 427.109C194.705 421.803 195.645 416.433 196.287 411.023C196.635 407.532 196.735 404.021 196.834 400.514L197.623 372.596C197.993 368.482 197.444 364.337 196.016 360.46L191.476 345.967C188.885 337.695 182.942 330.361 180.825 321.956C179.486 316.636 178.497 310.927 174.905 306.781C169.784 300.87 160.925 299.95 153.171 300.967C149.667 301.426 146.134 302.218 143.104 304.035C139.6 306.136 137.019 309.445 134.522 312.678C132.464 315.343 130.369 317.485 128.263 320.112Z" fill="#5E17EB"/>
<path d="M146.37 402.225C147.008 404.98 148.35 407.52 149.171 410.226C150.547 414.76 150.431 419.643 151.804 424.177C152.38 426.081 153.216 427.908 153.629 429.853C154.594 434.388 153.185 439.08 151.436 443.374C149.687 447.668 147.556 451.902 146.988 456.503C146.588 459.744 147.163 463.404 149.661 465.507C152.254 467.691 156.023 467.543 159.401 467.252C160.614 467.218 161.811 466.969 162.936 466.516C165.52 465.294 166.608 462.237 167.212 459.444C169.235 450.083 168.657 440.381 168.069 430.822L166.531 405.823C166.235 401.01 165.918 396.098 164.435 391.477C163.895 389.796 162.955 386.399 161.42 385.325C159.899 384.262 155.556 384.215 153.673 384.126C144.839 383.712 144.938 396.042 146.37 402.225Z" fill="#FBBEBE"/>
<path d="M156.158 309.925C154.353 308.98 152.08 309.387 150.336 310.439C148.653 311.592 147.178 313.024 145.976 314.673C142.077 319.432 137.95 324.893 138.528 331.017C138.745 333.314 139.624 335.487 140.22 337.715C142.834 347.485 139.944 357.818 140.275 367.927C140.467 373.767 141.738 379.513 143.004 385.218C143.262 386.382 143.676 387.73 144.802 388.122C145.648 388.417 146.562 388.038 147.4 387.72C150.52 386.567 153.871 386.182 157.171 386.598C160.471 387.014 163.622 388.218 166.359 390.109C168.451 388.993 167.667 385.463 167.198 383.139C165.804 376.232 167.696 369.108 169.993 362.447C172.291 355.787 175.04 349.135 175.42 342.1C175.852 334.129 173.209 326.349 170.601 318.804C170.032 317.157 169.41 315.43 168.09 314.292C166.96 313.452 165.665 312.86 164.291 312.556C161.521 311.738 158.716 311.265 156.158 309.925Z" fill="#2F2E41"/>
</g>
<defs>
<clipPath id="clip0">
<rect width="822.376" height="624.343" fill="white"/>
</clipPath>
</defs>
</svg>
