<svg width="128" height="83" viewBox="0 0 128 83" fill="none" xmlns="http://www.w3.org/2000/svg">
<path d="M31.665 82.3282C48.7165 82.3282 62.5394 80.5155 62.5394 78.2794C62.5394 76.0432 48.7165 74.2305 31.665 74.2305C14.6135 74.2305 0.790527 76.0432 0.790527 78.2794C0.790527 80.5155 14.6135 82.3282 31.665 82.3282Z" fill="#3F3D56"/>
<path d="M113.313 37.4561H86.8546L72.9458 60.1496C77.1228 62.7588 81.9407 64.1377 86.8546 64.1303C101.467 64.1303 113.313 52.1878 113.313 37.4561Z" fill="#F2F2F2"/>
<path d="M49.452 75.7576C53.3348 75.7576 56.4825 72.5843 56.4825 68.6698C56.4825 64.7554 53.3348 61.582 49.452 61.582C45.5691 61.582 42.4214 64.7554 42.4214 68.6698C42.4214 72.5843 45.5691 75.7576 49.452 75.7576Z" fill="#3F3D56"/>
<path d="M36.2457 17.1035C36.2457 17.1035 36.4967 19.6341 35.7437 20.6463C34.9907 21.6585 37.6263 27.9849 37.6263 27.9849L41.3915 20.8993C41.3915 20.8993 40.1364 20.1402 40.8895 17.9892L36.2457 17.1035Z" fill="#FFB9B9"/>
<path opacity="0.1" d="M36.2457 17.1035C36.2457 17.1035 36.4967 19.6341 35.7437 20.6463C34.9907 21.6585 37.6263 27.9849 37.6263 27.9849L41.3915 20.8993C41.3915 20.8993 40.1364 20.1402 40.8895 17.9892L36.2457 17.1035Z" fill="black"/>
<path d="M47.5419 29.8822L47.6674 35.0699L42.8981 42.788L42.0195 39.8779L44.6552 34.6903C44.6552 34.6903 43.7766 32.2863 44.0276 30.8945C44.2787 29.5027 47.5419 29.8822 47.5419 29.8822Z" fill="#FFB9B9"/>
<path d="M27.9629 29.1235L27.8374 34.3111L32.6066 42.0293L33.4851 39.1192L30.8495 33.9315C30.8495 33.9315 31.728 31.5275 31.477 30.1357C31.226 28.7439 27.9629 29.1235 27.9629 29.1235Z" fill="#FFB9B9"/>
<path d="M31.4768 37.4736L30.9748 38.7389C30.3055 39.3657 29.7793 40.1316 29.4326 40.9836C29.0858 41.8356 28.9269 42.7534 28.9667 43.6735L27.4606 59.3629C27.4606 59.3629 26.4566 60.5017 26.8331 61.8935C26.8331 61.8935 25.9546 66.575 26.4566 68.0933C26.4566 68.0933 24.323 72.0157 26.5821 72.2687C28.8412 72.5218 29.5942 72.5218 29.8452 71.6361C30.0962 70.7504 30.4728 67.4607 30.4728 67.4607L35.995 47.7224L36.8736 59.9955C36.8736 59.9955 35.995 63.2853 36.246 64.171C36.497 65.0567 34.4889 71.383 35.3675 72.0157C36.246 72.6483 38.7561 72.9014 38.8816 72.3953C39.0072 71.8891 39.1327 68.726 39.1327 68.726C39.1327 68.726 40.3877 65.9423 40.6387 65.0567C40.8897 64.171 41.1408 59.2364 41.1408 59.2364L43.3999 44.6857C43.3999 44.6857 43.9019 40.7634 42.6468 40.0042L42.1448 37.7267L31.4768 37.4736Z" fill="#2F2E41"/>
<path d="M26.2052 71.5107L25.7032 74.0413C25.7032 74.0413 23.0675 78.2167 25.5777 78.2167C28.0878 78.2167 28.3388 76.9514 28.3388 76.9514V75.8127C28.3388 75.8127 29.5939 75.18 29.5939 75.0535C29.5939 74.927 29.2174 71.8903 29.2174 71.8903L26.2052 71.5107Z" fill="#2F2E41"/>
<path d="M38.5049 71.5107L39.0069 74.0413C39.0069 74.0413 41.6426 78.2167 39.1324 78.2167C36.6223 78.2167 36.3713 76.9514 36.3713 76.9514V75.8127C36.3713 75.8127 35.1162 75.18 35.1162 75.0535C35.1162 74.927 35.4927 71.8903 35.4927 71.8903L38.5049 71.5107Z" fill="#2F2E41"/>
<path d="M39.033 19.8415C40.8618 19.8415 42.3443 18.3469 42.3443 16.5033C42.3443 14.6596 40.8618 13.165 39.033 13.165C37.2042 13.165 35.7217 14.6596 35.7217 16.5033C35.7217 18.3469 37.2042 19.8415 39.033 19.8415Z" fill="#FFB9B9"/>
<path d="M37.8775 25.3276C37.8775 25.3276 35.995 22.1644 36.1205 21.4052C36.1977 20.9703 36.1957 20.5248 36.1144 20.0906L34.9909 20.7726L30.3472 22.9236L32.2298 29.2499C32.2298 29.2499 31.7277 30.6417 31.7277 31.6539C31.7277 32.6662 31.9788 33.8049 31.7277 34.1845C31.4767 34.5641 31.3512 35.1967 31.6022 35.7028C31.7521 36.0175 31.7961 36.3729 31.7277 36.715C31.7277 36.715 29.9706 37.7273 30.9747 37.9803C31.6361 38.1273 32.3214 38.1273 32.9828 37.9803C32.9828 37.9803 33.1083 37.6007 34.1124 38.1068C35.1164 38.613 40.3877 38.7395 40.3877 38.7395C40.3877 38.7395 43.7763 38.866 43.6508 38.3599C43.5253 37.8538 44.2784 31.907 44.2784 31.907L46.0355 23.5562L42.0193 21.0256L40.722 19.8711L40.3877 21.6583L37.8775 25.3276Z" fill="#D0CDE1"/>
<path d="M31.2257 23.0498H30.3471C30.3471 23.0498 25.8916 28.4272 27.1467 29.3129C28.4018 30.1986 32.7318 30.8945 32.7318 30.8945C32.7318 30.8945 32.3552 23.0498 31.2257 23.0498Z" fill="#D0CDE1"/>
<path d="M44.906 23.5566H46.0356C46.0356 23.5566 49.0478 30.6422 48.0437 30.8952C47.0397 31.1483 43.3999 31.9074 43.3999 31.5278C43.3999 31.1483 44.906 23.5566 44.906 23.5566Z" fill="#D0CDE1"/>
<path d="M35.7469 16.4855C35.7469 16.4855 35.3876 15.9422 35.5258 15.3571C35.6083 15.0249 35.6409 14.6821 35.6225 14.3402C35.7771 13.8333 35.9711 13.3396 36.2029 12.8636C36.493 12.3342 36.3548 12.1113 37.2668 11.9442C38.1788 11.777 37.8057 10.579 40.21 11.8745C40.2912 11.9887 40.404 12.0761 40.5343 12.1257C40.6647 12.1753 40.8067 12.1848 40.9424 12.1531C41.4398 12.0556 41.6195 12.7521 41.6195 12.7521C41.6195 12.7521 41.9511 12.5571 42.0755 12.8357C42.1998 13.1143 43.0865 12.6685 43.0865 14.5491C43.0865 16.4297 42.0775 18.1096 42.0775 18.1096C42.0775 18.1096 42.1515 14.9462 40.5071 14.6258C38.8628 14.3054 37.0941 13.372 36.6658 14.57C36.4345 15.2424 36.1261 15.8853 35.7469 16.4855Z" fill="#2F2E41"/>
<path d="M85.9581 61.6568C81.0213 61.6609 76.1814 60.2757 71.9831 57.6572L71.8765 57.5906L71.9424 57.4831L85.8881 34.7295H112.542V34.856C112.542 49.6341 100.617 61.6568 85.9581 61.6568ZM72.222 57.5083C76.3565 60.0596 81.1106 61.4078 85.9581 61.4037C100.437 61.4037 112.224 49.5634 112.291 34.9825H86.0281L72.222 57.5083Z" fill="#3F3D56"/>
<path d="M54.0054 33.6131C54.0033 38.1609 55.1553 42.6336 57.352 46.6058C59.5487 50.578 62.717 53.9175 66.5554 56.3066L80.4642 33.6131L57.4881 20.377C55.1992 24.4061 53.9983 28.9699 54.0054 33.6131Z" fill="#F2F2F2"/>
<path d="M68.726 55.5772L68.6193 55.5106C62.7567 51.8562 58.5304 46.05 56.8309 39.3157C55.1315 32.5814 56.0917 25.445 59.5091 19.4104L59.5714 19.3008L82.7692 32.6645L68.726 55.5772ZM59.6649 19.6461C56.3295 25.6018 55.4015 32.6251 57.0743 39.2534C58.747 45.8817 62.8916 51.6039 68.6448 55.2285L82.4192 32.7543L59.6649 19.6461Z" fill="#3F3D56"/>
<path d="M93.6238 3.49316L87.9199 29.5439H114.379C114.379 16.7866 105.495 6.12297 93.6238 3.49316Z" fill="#5E17EB"/>
<path d="M112.542 31.1395H85.8018L91.5663 4.81152L91.6888 4.83864C97.6013 6.15608 102.891 9.46831 106.683 14.2277C110.474 18.987 112.542 24.9085 112.542 31.0129V31.1395ZM86.1143 30.8864H112.291C112.232 18.6094 103.622 7.80265 91.7573 5.1132L86.1143 30.8864Z" fill="#3F3D56"/>
<path d="M82.2579 0.948244C77.5928 0.946387 73.0103 2.18849 68.9751 4.54854C64.9399 6.9086 61.5957 10.3026 59.2817 14.3863L82.2579 27.6224L87.9618 1.57171C86.0884 1.15678 84.1759 0.947741 82.2579 0.948244Z" fill="#F2F2F2"/>
<path d="M83.4655 29.9656L60.2319 16.5813L60.2944 16.4714C63.1111 11.511 67.4254 7.58702 72.6087 5.27109C77.792 2.95515 83.5734 2.36834 89.1106 3.59614L89.2333 3.62333L83.4655 29.9656ZM60.5749 16.4874L83.2939 29.5752L88.934 3.8164C83.4853 2.63561 77.8055 3.22588 72.7104 5.50244C67.6152 7.779 63.3667 11.6247 60.5749 16.4874Z" fill="#3F3D56"/>
<path d="M97.1484 22.2847L96.9658 22.1111L110.737 7.37793H121.946V7.63099H110.845L97.1484 22.2847Z" fill="#3F3D56"/>
<path d="M127.552 9.3125H114.322V9.76459H127.552V9.3125Z" fill="#5E17EB"/>
<path d="M127.552 11.2344H114.322V11.6865H127.552V11.2344Z" fill="#5E17EB"/>
<path d="M127.552 13.1553H114.322V13.6074H127.552V13.1553Z" fill="#5E17EB"/>
<path d="M123.034 65.2373H109.804V65.6895H123.034V65.2373Z" fill="#5E17EB"/>
<path d="M123.034 67.1592H109.804V67.6113H123.034V67.1592Z" fill="#5E17EB"/>
<path d="M123.034 69.0801H109.804V69.5322H123.034V69.0801Z" fill="#5E17EB"/>
<path d="M117.386 62.9691H104.142L104.104 62.9143L93.813 47.8575L94.0196 47.7139L104.274 62.716H117.386V62.9691Z" fill="#3F3D56"/>
<path d="M7.96484 72.1394C7.54675 75.8327 9.79904 79.1249 9.79904 79.1249C9.79904 79.1249 12.7292 76.429 13.1473 72.7356C13.5654 69.0422 11.3131 65.75 11.3131 65.75C11.3131 65.75 8.38294 68.446 7.96484 72.1394Z" fill="#2F2E41"/>
<path d="M9.56216 71.9484C11.0692 75.3411 9.91054 79.166 9.91054 79.166C9.91054 79.166 6.30861 77.4902 4.80161 74.0975C3.29461 70.7048 4.45322 66.8799 4.45322 66.8799C4.45322 66.8799 8.05516 68.5557 9.56216 71.9484Z" fill="#5E17EB"/>
</svg>
