<svg width="373" height="748" viewBox="0 0 373 748" fill="none" xmlns="http://www.w3.org/2000/svg">
<path d="M372.772 177.657H368.664V65.1285C368.664 56.5757 366.98 48.1067 363.707 40.2049C360.434 32.3031 355.636 25.1234 349.588 19.0756C343.541 13.0279 336.361 8.23057 328.459 4.95756C320.557 1.68456 312.088 -2.45616e-05 303.535 3.01144e-10H65.1287C56.5759 -2.60064e-05 48.1068 1.68456 40.205 4.95756C32.3032 8.23057 25.1235 13.0279 19.0757 19.0756C13.028 25.1234 8.23064 32.3031 4.95762 40.2049C1.6846 48.1067 -1.01137e-05 56.5757 0 65.1285V682.469C-1.01137e-05 691.022 1.6846 699.491 4.95762 707.393C8.23064 715.294 13.028 722.474 19.0757 728.522C25.1235 734.57 32.3032 739.367 40.205 742.64C48.1068 745.913 56.5759 747.597 65.1287 747.597H303.535C312.088 747.597 320.557 745.913 328.459 742.64C336.361 739.367 343.541 734.57 349.588 728.522C355.636 722.474 360.434 715.294 363.707 707.393C366.98 699.491 368.664 691.022 368.664 682.469V257.757H372.772V177.657Z" fill="#3F3D56"/>
<path d="M355.386 60.7661V686.83C355.384 699.928 350.179 712.488 340.918 721.75C331.656 731.011 319.096 736.216 305.998 736.218H62.7027C49.6017 736.22 37.0366 731.017 27.7709 721.756C18.5052 712.494 13.2977 699.931 13.2939 686.83V60.7661C13.2978 47.6651 18.5052 35.1021 27.7709 25.8403C37.0366 16.5785 49.6017 11.3763 62.7027 11.3779H92.216C90.7669 14.9418 90.2153 18.807 90.6099 22.6339C91.0044 26.4608 92.333 30.1322 94.4787 33.3254C96.6245 36.5187 99.5218 39.1359 102.916 40.9471C106.31 42.7584 110.097 43.7082 113.944 43.713H252.655C256.503 43.7082 260.29 42.7585 263.684 40.9472C267.078 39.136 269.976 36.5187 272.121 33.3255C274.267 30.1323 275.596 26.4609 275.99 22.6339C276.385 18.807 275.833 14.9418 274.384 11.3779H305.998C319.096 11.3806 331.656 16.5848 340.918 25.8463C350.179 35.1078 355.383 47.6683 355.386 60.7661Z" fill="white"/>
<g filter="url(#filter0_d)">
<path d="M307.065 386.795H61.6152V632.245H307.065V386.795Z" fill="white"/>
</g>
<g filter="url(#filter1_d)">
<path d="M254.258 276.124H115.81V286.53H254.258V276.124Z" fill="white"/>
</g>
<g filter="url(#filter2_d)">
<path d="M271.524 303.164H97.2861V313.57H271.524V303.164Z" fill="white"/>
</g>
<path d="M227.887 410.49H132.343V417.672H227.887V410.49Z" fill="#E6E6E6"/>
<path d="M279.884 431.573H132.343V438.754H279.884V431.573Z" fill="#6C63FF"/>
<path d="M254.12 451.649H133.877V458.831H254.12V451.649Z" fill="#E6E6E6"/>
<path d="M202.539 473.68H132.343V480.861H202.539V473.68Z" fill="#E6E6E6"/>
<path d="M238.287 495.199H132.343V502.38H238.287V495.199Z" fill="#6C63FF"/>
<path d="M100.495 408.231H88.7959V419.93H100.495V408.231Z" fill="#E6E6E6"/>
<path d="M100.495 429.313H88.7959V441.013H100.495V429.313Z" fill="#6C63FF"/>
<path d="M100.495 449.391H88.7959V461.09H100.495V449.391Z" fill="#E6E6E6"/>
<path d="M100.495 471.42H88.7959V483.12H100.495V471.42Z" fill="#E6E6E6"/>
<path d="M100.495 492.939H88.7959V504.639H100.495V492.939Z" fill="#6C63FF"/>
<path d="M227.887 516.851H132.343V524.032H227.887V516.851Z" fill="#E6E6E6"/>
<path d="M279.884 537.934H132.343V545.115H279.884V537.934Z" fill="#6C63FF"/>
<path d="M254.12 558.011H133.877V565.193H254.12V558.011Z" fill="#E6E6E6"/>
<path d="M202.539 580.042H132.343V587.223H202.539V580.042Z" fill="#E6E6E6"/>
<path d="M238.287 601.56H132.343V608.741H238.287V601.56Z" fill="#E6E6E6"/>
<path d="M100.495 514.592H88.7959V526.292H100.495V514.592Z" fill="#E6E6E6"/>
<path d="M100.495 535.675H88.7959V547.374H100.495V535.675Z" fill="#6C63FF"/>
<path d="M100.495 555.752H88.7959V567.451H100.495V555.752Z" fill="#E6E6E6"/>
<path d="M100.495 577.781H88.7959V589.481H100.495V577.781Z" fill="#E6E6E6"/>
<path d="M100.495 599.301H88.7959V611H100.495V599.301Z" fill="#E6E6E6"/>
<g filter="url(#filter3_d)">
<path d="M184.34 244.83C228.536 244.83 264.364 209.002 264.364 164.806C264.364 120.609 228.536 84.7812 184.34 84.7812C140.144 84.7812 104.315 120.609 104.315 164.806C104.315 209.002 140.144 244.83 184.34 244.83Z" fill="white"/>
</g>
<g filter="url(#filter4_d)">
<path d="M183.68 125.561C175.877 125.561 168.25 127.875 161.763 132.209C155.275 136.544 150.219 142.705 147.233 149.914C144.248 157.122 143.466 165.054 144.988 172.706C146.511 180.359 150.268 187.388 155.785 192.905C161.302 198.422 168.331 202.179 175.983 203.701C183.636 205.223 191.568 204.442 198.776 201.456C205.985 198.471 212.146 193.414 216.48 186.927C220.815 180.44 223.129 172.812 223.129 165.01C223.098 154.557 218.932 144.541 211.541 137.149C204.149 129.758 194.133 125.592 183.68 125.561ZM183.68 137.396C186.02 137.396 188.308 138.09 190.255 139.39C192.201 140.691 193.718 142.539 194.613 144.702C195.509 146.864 195.744 149.244 195.287 151.539C194.83 153.835 193.703 155.944 192.048 157.599C190.393 159.254 188.284 160.381 185.988 160.838C183.693 161.294 181.313 161.06 179.151 160.164C176.988 159.269 175.14 157.752 173.839 155.805C172.539 153.859 171.845 151.571 171.845 149.23C171.855 146.095 173.106 143.091 175.323 140.874C177.54 138.656 180.544 137.406 183.68 137.396V137.396ZM183.68 194.369C179.004 194.348 174.405 193.186 170.28 190.985C166.156 188.784 162.63 185.61 160.01 181.738C160.2 173.848 175.79 169.505 183.68 169.505C191.569 169.505 207.159 173.848 207.349 181.738C204.726 185.607 201.2 188.779 197.076 190.98C192.952 193.18 188.354 194.344 183.68 194.369Z" fill="#6C63FF"/>
</g>
<defs>
<filter id="filter0_d" x="61.6152" y="385.795" width="264.45" height="257.45" filterUnits="userSpaceOnUse" color-interpolation-filters="sRGB">
<feFlood flood-opacity="0" result="BackgroundImageFix"/>
<feColorMatrix in="SourceAlpha" type="matrix" values="0 0 0 0 0 0 0 0 0 0 0 0 0 0 0 0 0 0 127 0"/>
<feOffset dx="13" dy="5"/>
<feGaussianBlur stdDeviation="3"/>
<feColorMatrix type="matrix" values="0 0 0 0 0 0 0 0 0 0 0 0 0 0 0 0 0 0 0.25 0"/>
<feBlend mode="normal" in2="BackgroundImageFix" result="effect1_dropShadow"/>
<feBlend mode="normal" in="SourceGraphic" in2="effect1_dropShadow" result="shape"/>
</filter>
<filter id="filter1_d" x="115.81" y="275.124" width="149.449" height="20.4061" filterUnits="userSpaceOnUse" color-interpolation-filters="sRGB">
<feFlood flood-opacity="0" result="BackgroundImageFix"/>
<feColorMatrix in="SourceAlpha" type="matrix" values="0 0 0 0 0 0 0 0 0 0 0 0 0 0 0 0 0 0 127 0"/>
<feOffset dx="6" dy="4"/>
<feGaussianBlur stdDeviation="2.5"/>
<feColorMatrix type="matrix" values="0 0 0 0 0 0 0 0 0 0 0 0 0 0 0 0 0 0 0.25 0"/>
<feBlend mode="normal" in2="BackgroundImageFix" result="effect1_dropShadow"/>
<feBlend mode="normal" in="SourceGraphic" in2="effect1_dropShadow" result="shape"/>
</filter>
<filter id="filter2_d" x="97.2861" y="302.164" width="193.238" height="22.4061" filterUnits="userSpaceOnUse" color-interpolation-filters="sRGB">
<feFlood flood-opacity="0" result="BackgroundImageFix"/>
<feColorMatrix in="SourceAlpha" type="matrix" values="0 0 0 0 0 0 0 0 0 0 0 0 0 0 0 0 0 0 127 0"/>
<feOffset dx="13" dy="5"/>
<feGaussianBlur stdDeviation="3"/>
<feColorMatrix type="matrix" values="0 0 0 0 0 0 0 0 0 0 0 0 0 0 0 0 0 0 0.25 0"/>
<feBlend mode="normal" in2="BackgroundImageFix" result="effect1_dropShadow"/>
<feBlend mode="normal" in="SourceGraphic" in2="effect1_dropShadow" result="shape"/>
</filter>
<filter id="filter3_d" x="102.315" y="82.7812" width="180.049" height="180.049" filterUnits="userSpaceOnUse" color-interpolation-filters="sRGB">
<feFlood flood-opacity="0" result="BackgroundImageFix"/>
<feColorMatrix in="SourceAlpha" type="matrix" values="0 0 0 0 0 0 0 0 0 0 0 0 0 0 0 0 0 0 127 0"/>
<feOffset dx="8" dy="8"/>
<feGaussianBlur stdDeviation="5"/>
<feColorMatrix type="matrix" values="0 0 0 0 0 0 0 0 0 0 0 0 0 0 0 0 0 0 0.25 0"/>
<feBlend mode="normal" in2="BackgroundImageFix" result="effect1_dropShadow"/>
<feBlend mode="normal" in="SourceGraphic" in2="effect1_dropShadow" result="shape"/>
</filter>
<filter id="filter4_d" x="142.23" y="123.561" width="98.8982" height="98.8982" filterUnits="userSpaceOnUse" color-interpolation-filters="sRGB">
<feFlood flood-opacity="0" result="BackgroundImageFix"/>
<feColorMatrix in="SourceAlpha" type="matrix" values="0 0 0 0 0 0 0 0 0 0 0 0 0 0 0 0 0 0 127 0"/>
<feOffset dx="8" dy="8"/>
<feGaussianBlur stdDeviation="5"/>
<feColorMatrix type="matrix" values="0 0 0 0 0 0 0 0 0 0 0 0 0 0 0 0 0 0 0.25 0"/>
<feBlend mode="normal" in2="BackgroundImageFix" result="effect1_dropShadow"/>
<feBlend mode="normal" in="SourceGraphic" in2="effect1_dropShadow" result="shape"/>
</filter>
</defs>
</svg>
