<svg width="119" height="115" viewBox="0 0 119 115" fill="none" xmlns="http://www.w3.org/2000/svg">
<path d="M92.1305 81.0708L116.001 57.2009C119.616 53.5855 119.616 47.7028 116.001 44.0874C114.726 42.8125 113.169 41.9894 111.529 41.6137C112.091 40.4048 112.389 39.078 112.389 37.705C112.389 35.2282 111.424 32.8996 109.673 31.1485C108.3 29.7748 106.57 28.8877 104.693 28.5681C105.75 25.3488 105.003 21.6617 102.448 19.1066C101.043 17.7019 99.2954 16.8458 97.4717 16.5329C97.7773 15.6056 97.9384 14.6265 97.9384 13.6218C97.9384 11.1449 96.9738 8.81639 95.2227 7.06527C93.4713 5.31414 91.1428 4.34952 88.6662 4.34952C87.0934 4.34952 85.5812 4.7397 84.2377 5.47233L84.0003 5.21721C80.9148 1.90144 76.5473 0 72.0184 0H52.6965C51.3378 0 50.2359 1.1019 50.2359 2.46063V5.68734C50.2359 6.97867 50.4543 8.2358 50.8721 9.41789C49.7591 8.95563 48.5549 8.71282 47.3135 8.71282C44.8366 8.71282 42.5081 9.67744 40.7567 11.4286C38.2001 13.9851 37.454 17.6749 38.5131 20.8952C36.6879 21.2074 34.938 22.064 33.5318 23.4699C31.7807 25.2213 30.816 27.5498 30.816 30.0265C30.816 31.0292 30.9767 32.0069 31.281 32.9321C29.4064 33.2527 27.6789 34.1393 26.3066 35.5118C23.4831 38.3353 22.8649 42.5421 24.4519 45.9713C22.7714 46.3554 21.2279 47.2016 19.9787 48.4507C16.3635 52.0658 16.3635 57.9485 19.9787 61.5639L24.8876 66.4726L0.720697 90.639C-0.240232 91.6 -0.240232 93.158 0.720697 94.1192C1.20116 94.5994 1.83096 94.84 2.46051 94.84C3.09006 94.84 3.71985 94.5996 4.20031 94.1192L28.6004 69.719C29.9818 70.5073 31.5494 70.9289 33.1832 70.9289C35.6598 70.9289 37.9883 69.9643 39.7397 68.2129C41.6424 66.3105 42.5423 63.7798 42.4422 61.2822C42.5669 61.2874 42.6916 61.2911 42.8163 61.2911C45.1904 61.2908 47.5656 60.387 49.3729 58.5798C51.124 56.8284 52.0886 54.4999 52.0886 52.0233C52.0886 51.898 52.0844 51.7736 52.0795 51.6491C52.2028 51.654 52.326 51.6579 52.4495 51.6579C54.8238 51.6579 57.1986 50.7541 59.006 48.9466C60.7571 47.1953 61.7218 44.8667 61.7218 42.3901C61.7218 42.2649 61.7176 42.1404 61.7127 42.0159C61.8359 42.0208 61.9592 42.0248 62.0827 42.0248C64.4572 42.0248 66.8317 41.1209 68.6392 39.3135C72.0361 35.9165 72.2406 30.5182 69.2542 26.8794L85.588 10.5456C86.41 9.72344 87.5023 9.27102 88.6647 9.27102C89.8271 9.27102 90.9197 9.72344 91.7416 10.5456C92.5635 11.3676 93.0159 12.4599 93.0159 13.6223C93.0159 14.7844 92.5635 15.8772 91.7413 16.6989L89.3331 19.1071L80.5952 27.8451C79.6343 28.806 79.6343 30.364 80.5952 31.3252C81.0757 31.8054 81.7055 32.046 82.335 32.046C82.9646 32.046 83.5943 31.8056 84.0748 31.3252L92.8127 22.5872C94.509 20.8907 97.2695 20.8905 98.9663 22.587C100.663 24.2838 100.663 27.044 98.9663 28.7408L96.5578 31.1493L90.2284 37.4787C89.2674 38.4396 89.2674 39.9976 90.2284 40.9588C90.7088 41.439 91.3386 41.6796 91.9682 41.6796C92.5977 41.6796 93.2275 41.4393 93.708 40.9588L100.037 34.6294C100.859 33.8072 101.952 33.3548 103.114 33.3548C104.276 33.3548 105.369 33.8072 106.191 34.6294C107.013 35.4513 107.465 36.5436 107.465 37.706C107.465 38.8682 107.013 39.961 106.191 40.7827L102.885 44.0883L99.8613 47.1121C98.9003 48.073 98.9003 49.631 99.8613 50.5922C100.342 51.0724 100.972 51.313 101.601 51.313C102.231 51.313 102.86 51.0727 103.341 50.5922L106.367 47.5662C108.064 45.8724 110.822 45.8727 112.518 47.5685C114.215 49.265 114.215 52.0255 112.518 53.7222L88.648 77.5922C82.6541 83.5863 74.6879 87.0563 66.2169 87.3639C65.5943 87.3865 65.0028 87.6446 64.563 88.0864L42.5123 110.219C41.5531 111.181 41.5558 112.739 42.5187 113.699C42.9986 114.177 43.627 114.416 44.2553 114.416C44.8863 114.416 45.5178 114.175 45.9983 113.692L62.2172 97.4135C66.337 100.056 71.182 101.313 76.1084 100.987L88.8022 113.681C89.2827 114.162 89.9125 114.402 90.542 114.402C91.1718 114.402 91.8014 114.162 92.2818 113.681C93.2428 112.72 93.2428 111.162 92.2818 110.201L78.7855 96.7035C78.2745 96.1928 77.5646 95.9318 76.8445 95.9908L76.0644 96.0548C72.4635 96.35 68.9041 95.5613 65.7965 93.8198L67.3779 92.2327C76.7303 91.6558 85.4864 87.7152 92.1305 81.0708ZM36.2601 64.7333C35.4382 65.5555 34.3454 66.0079 33.1834 66.0079C32.021 66.0079 30.9285 65.5555 30.1068 64.7333L23.458 58.0848C21.7615 56.3883 21.7615 53.6278 23.458 51.931C24.28 51.1088 25.3727 50.6564 26.5349 50.6564C27.6971 50.6564 28.7899 51.1088 29.6116 51.931L36.2603 58.5795C37.9566 60.276 37.9566 63.0366 36.2601 64.7333ZM45.8937 55.0997C44.197 56.7962 41.436 56.7962 39.74 55.0997L33.0912 48.4509L29.7852 45.145C28.0887 43.4485 28.0887 40.6879 29.7852 38.9914C30.6072 38.1693 31.7 37.7168 32.8619 37.7168C34.0243 37.7168 35.1169 38.1693 35.9385 38.9914L45.893 48.9459C45.893 48.9459 45.893 48.9459 45.8932 48.9459C46.7154 49.7681 47.1678 50.8606 47.1678 52.0228C47.1678 53.1849 46.7154 54.2777 45.8937 55.0997ZM55.5269 45.4663C53.8301 47.1625 51.0694 47.1628 49.3731 45.4663L37.0102 33.1033C36.1882 32.2814 35.7358 31.1891 35.7358 30.0267C35.7358 28.8645 36.1883 27.7717 37.0104 26.9501C37.8587 26.1018 38.9731 25.6777 40.0871 25.6777C41.2005 25.6777 42.3137 26.1013 43.1618 26.9481L48.7965 32.5828L55.5264 39.3127H55.5266C56.3483 40.1347 56.8008 41.227 56.8008 42.3894C56.8012 43.5518 56.3488 44.6446 55.5269 45.4663ZM65.1603 35.8329C63.4638 37.5294 60.7033 37.5294 59.0068 35.8329L46.6438 23.4699C46.6426 23.4687 46.6411 23.4675 46.6396 23.466L44.2354 21.0617C42.5388 19.365 42.5388 16.6047 44.2354 14.9079C45.0836 14.0594 46.1981 13.6353 47.3123 13.6353C48.4264 13.6353 49.5409 14.0594 50.3889 14.9079L65.1598 29.6788C65.982 30.5008 66.4344 31.5933 66.4344 32.7555C66.4346 33.9181 65.9825 35.0112 65.1603 35.8329ZM65.8073 23.3669L59.0488 16.6084C59.8152 16.772 60.6031 16.8588 61.4051 16.8586C61.4231 16.8586 61.4413 16.8586 61.4595 16.8586L68.2121 16.8268C69.5708 16.8204 70.6676 15.7136 70.6612 14.3546C70.6548 12.9996 69.5543 11.9056 68.2008 11.9056C68.1968 11.9056 68.1929 11.9056 68.189 11.9056L61.4364 11.9373C61.4261 11.9373 61.4162 11.9373 61.4059 11.9373C59.7421 11.9373 58.1772 11.2915 56.9973 10.1173C55.8101 8.93546 55.1564 7.36245 55.1564 5.6871V4.92101H72.0177C75.1851 4.92101 78.2394 6.25071 80.3974 8.56964L80.4975 8.67715L65.8073 23.3669Z" fill="white"/>
</svg>
