<svg width="190" height="190" viewBox="0 0 190 190" fill="none" xmlns="http://www.w3.org/2000/svg">
<g clip-path="url(#clip0)">
<path d="M94.7855 18.9268C73.1971 18.9268 55.6338 36.4901 55.6338 58.0785C55.6338 72.8292 63.7908 86.1816 76.9217 92.9254C78.7374 93.8576 80.9656 93.1416 81.8986 91.3259C82.8312 89.5099 82.1152 87.2816 80.2991 86.349C69.6452 80.8775 63.0267 70.0451 63.0267 58.0789C63.0267 40.5669 77.2736 26.32 94.7855 26.32C112.298 26.32 126.544 40.5669 126.544 58.0789C126.544 70.0462 119.925 80.879 109.27 86.3501C107.454 87.2827 106.738 89.511 107.67 91.327C108.325 92.603 109.62 93.3361 110.962 93.3357C111.53 93.3357 112.107 93.2045 112.647 92.9269C125.78 86.1834 133.938 72.8303 133.938 58.0789C133.937 36.4901 116.374 18.9268 94.7855 18.9268Z" fill="white"/>
<path d="M151.203 52.0712L148.828 47.6414L149.225 42.151C149.683 37.8443 147.961 33.644 144.611 30.9027L140.665 27.6713L139.136 23.0655C138.052 18.7037 134.729 15.2017 130.422 13.9009L125.552 12.4297L121.797 8.08894C119.086 4.90001 114.984 3.23956 110.817 3.65061L105.763 4.15406L100.775 1.65193C97.0165 -0.344894 92.5383 -0.343045 88.7782 1.66191L84.3484 4.03615L78.8577 3.63878C74.5506 3.18116 70.351 4.9026 67.6097 8.25343L64.3786 12.1994L59.7729 13.7283C55.411 14.8117 51.909 18.1355 50.6082 22.4419L49.137 27.3116L44.7963 31.0672C41.6077 33.7782 39.948 37.8813 40.358 42.0472L40.8614 47.1013L38.3593 52.0893C36.3625 55.8479 36.3636 60.3258 38.3689 64.0858L40.7431 68.5156L40.3461 74.0064C39.8885 78.3127 41.61 82.513 44.9608 85.2543L48.9068 88.4857L50.4356 93.0915C51.396 96.9566 54.1165 100.143 57.7198 101.725V185.718C57.7198 187 58.383 188.19 59.4731 188.863C60.5628 189.536 61.9231 189.597 63.0694 189.025L94.7861 173.167L126.502 189.025C127.024 189.286 127.59 189.415 128.155 189.415C128.832 189.415 129.505 189.23 130.099 188.863C131.189 188.189 131.852 186.999 131.852 185.718V101.721C135.24 100.231 137.875 97.3206 138.964 93.7151L140.435 88.8454L144.776 85.0898C147.964 82.3788 149.624 78.2758 149.214 74.1102L148.711 69.0561L151.213 64.0677C153.209 60.3091 153.208 55.8309 151.203 52.0712ZM65.1128 104.991L67.775 108.068C70.4863 111.257 74.5897 112.916 78.7549 112.506L83.8083 112.003L88.7963 114.505C89.5364 114.898 90.3049 115.211 91.0896 115.449V166.749L65.1128 179.737V104.991ZM98.4825 166.75V115.449C99.2732 115.209 100.048 114.893 100.793 114.495L105.223 112.121L110.714 112.518C115.019 112.977 119.22 111.255 121.962 107.904L124.459 104.854V179.738L98.4825 166.75ZM144.673 60.6204C144.657 60.6503 144.641 60.6806 144.626 60.7113L141.622 66.6992C141.309 67.3246 141.179 68.0266 141.248 68.723L141.857 74.8384C142.03 76.5887 141.33 78.3157 139.963 79.4782L134.788 83.9554C134.259 84.4134 133.87 85.0118 133.668 85.682L131.887 91.5775C131.331 93.4187 129.819 94.8344 127.943 95.2721C127.833 95.2976 127.724 95.3282 127.618 95.3637L121.849 97.2785C121.184 97.4988 120.596 97.9032 120.153 98.4447L116.242 103.221C115.079 104.643 113.291 105.368 111.462 105.163C111.413 105.157 111.364 105.153 111.315 105.149L104.689 104.67C103.99 104.621 103.292 104.768 102.676 105.099L97.3078 107.976C95.7239 108.82 93.8309 108.816 92.2448 107.965C92.2144 107.949 92.1841 107.933 92.1538 107.918L86.1659 104.914C85.6499 104.656 85.0821 104.522 84.5084 104.522C84.3865 104.522 84.2637 104.528 84.1418 104.54L78.0271 105.149C76.2761 105.323 74.5498 104.622 73.3873 103.255L68.9101 98.0799C68.4521 97.5506 67.8537 97.1621 67.1835 96.9599L61.288 95.1789C59.4468 94.6226 58.0311 93.1111 57.5934 91.2341C57.5679 91.1246 57.5372 91.016 57.5018 90.9091L55.5866 85.1397C55.3663 84.4755 54.9619 83.8877 54.4204 83.4445L49.6442 79.5333C48.2225 78.37 47.4966 76.5832 47.7025 74.7534C47.708 74.7046 47.7124 74.6555 47.7161 74.6067L48.1952 67.98C48.2455 67.2821 48.0969 66.5842 47.7664 65.9673L44.8894 60.5997C44.0444 59.0154 44.0485 57.1228 44.8998 55.5367C44.9161 55.5063 44.9316 55.476 44.9471 55.4457L47.9505 49.4578C48.2643 48.832 48.3941 48.1304 48.3246 47.4336L47.7154 41.3186C47.5431 39.5683 48.2425 37.8413 49.6098 36.6788L54.7849 32.2017C55.3142 31.7437 55.7027 31.1448 55.9049 30.475L57.6858 24.5796C58.2422 22.7384 59.7536 21.3226 61.6303 20.885C61.7401 20.8595 61.8484 20.8288 61.9553 20.7933L67.7247 18.8782C68.3889 18.6578 68.977 18.2535 69.4202 17.7119L73.3311 12.9357C74.494 11.5137 76.2816 10.7866 78.111 10.994C78.1598 10.9995 78.2086 11.004 78.2574 11.0077L84.884 11.4871C85.5823 11.5366 86.2802 11.3888 86.8971 11.0583L92.2647 8.18135C93.849 7.33634 95.742 7.34078 97.3281 8.1917C97.3581 8.2076 97.3884 8.22349 97.4187 8.23865L103.407 11.242C104.032 11.5558 104.735 11.686 105.43 11.6161L111.546 11.0069C113.299 10.8339 115.023 11.534 116.186 12.9014L120.663 18.0764C121.121 18.6057 121.719 18.9942 122.389 19.1964L128.285 20.9774C130.126 21.5337 131.542 23.0452 131.979 24.9219C132.005 25.0316 132.036 25.14 132.071 25.2471L133.986 31.0166C134.207 31.6808 134.611 32.2686 135.152 32.7118L139.929 36.623C141.35 37.7859 142.076 39.5731 141.87 41.4032C141.865 41.4517 141.86 41.5008 141.857 41.5496L141.378 48.1763C141.327 48.8742 141.476 49.572 141.806 50.189L144.683 55.5566C145.528 57.1413 145.524 59.0339 144.673 60.6204Z" fill="white"/>
<path d="M98.8835 69.1678H98.482V43.293C98.482 41.9722 97.7775 40.752 96.6338 40.0918C95.4905 39.4316 94.0814 39.4316 92.9374 40.0918L88.8391 42.4579C87.0711 43.4785 86.4652 45.7393 87.4862 47.5073C88.2418 48.8162 89.6775 49.4878 91.0891 49.3344V69.1674H90.6873C88.6458 69.1674 86.9909 70.8223 86.9909 72.8639C86.9909 74.9054 88.6458 76.5603 90.6873 76.5603H98.8835C100.925 76.5603 102.58 74.9054 102.58 72.8639C102.58 70.8223 100.925 69.1678 98.8835 69.1678Z" fill="white"/>
<path d="M94.7858 89.8369H94.7828C92.7413 89.8369 91.0879 91.4918 91.0879 93.5334C91.0879 95.575 92.7443 97.2299 94.7858 97.2299C96.8273 97.2299 98.4822 95.575 98.4822 93.5334C98.4822 91.4918 96.8273 89.8369 94.7858 89.8369Z" fill="white"/>
</g>
<defs>
<clipPath id="clip0">
<rect width="189.259" height="189.259" fill="white" transform="translate(0.15625 0.15625)"/>
</clipPath>
</defs>
</svg>
