<svg width="124" height="123" viewBox="0 0 124 123" fill="none" xmlns="http://www.w3.org/2000/svg">
<path d="M4.15318 101.949C3.74546 101.949 3.51611 101.944 3.47534 101.944C2.06868 101.903 0.962722 100.731 0.998398 99.3245C1.03917 97.9178 2.17061 96.9087 3.61804 96.8475C4.46407 96.8374 91.0193 98.3765 110.651 22.3101C111.003 20.9442 112.389 20.1338 113.755 20.4804C115.116 20.8321 115.937 22.2234 115.585 23.5842C95.8815 99.9463 12.5524 101.949 4.15318 101.949Z" fill="white"/>
<path d="M120.768 38.7355C119.886 38.7355 119.03 38.2819 118.556 37.4613L112.185 26.4272L101.151 32.798C99.933 33.4962 98.3735 33.0834 97.6701 31.8653C96.9668 30.6472 97.3847 29.0876 98.6028 28.3843L111.844 20.7394C113.057 20.031 114.616 20.4489 115.325 21.6721L122.97 34.913C123.673 36.1311 123.255 37.6907 122.037 38.394C121.639 38.6284 121.201 38.7355 120.768 38.7355Z" fill="white"/>
<path d="M110.575 122.33C109.168 122.33 108.027 121.188 108.027 119.781V53.5258C108.027 52.1192 109.168 50.9775 110.575 50.9775C111.982 50.9775 113.123 52.1192 113.123 53.5258V119.781C113.123 121.188 111.982 122.33 110.575 122.33Z" fill="white"/>
<path d="M79.9956 122.33C78.5889 122.33 77.4473 121.189 77.4473 119.782V89.2026C77.4473 87.7959 78.5889 86.6543 79.9956 86.6543C81.4022 86.6543 82.5438 87.7959 82.5438 89.2026V119.782C82.5438 121.189 81.4022 122.33 79.9956 122.33Z" fill="white"/>
<path d="M49.416 122.33C48.0093 122.33 46.8677 121.188 46.8677 119.781V104.492C46.8677 103.085 48.0093 101.943 49.416 101.943C50.8227 101.943 51.9643 103.085 51.9643 104.492V119.781C51.9643 121.188 50.8227 122.33 49.416 122.33Z" fill="white"/>
<path d="M18.8364 122.329C17.4297 122.329 16.2881 121.188 16.2881 119.781V112.136C16.2881 110.73 17.4297 109.588 18.8364 109.588C20.243 109.588 21.3847 110.73 21.3847 112.136V119.781C21.3847 121.188 20.243 122.329 18.8364 122.329Z" fill="white"/>
<path d="M37.9901 60.3455C37.3377 60.3455 36.6853 60.0957 36.1859 59.6014L17.8586 41.2689C16.9004 40.3108 16.8596 38.7665 17.7668 37.7625L32.7814 21.0915C43.4485 8.77309 60.3692 0.282173 74.8536 0.0120536C75.455 -0.0694919 76.2144 0.27198 76.7037 0.756155C77.193 1.25052 77.458 1.91818 77.4478 2.60622C77.1777 17.0907 68.6868 34.0114 56.3276 44.7091L39.6923 59.6931C39.2132 60.1314 38.6017 60.3455 37.9901 60.3455ZM23.1743 39.3781L38.0869 54.2907L52.9587 40.8918C63.5392 31.7332 71.0108 17.7431 72.1932 5.26664C59.7168 6.44904 45.7318 13.9206 36.6038 24.4655L23.1743 39.3781Z" fill="white"/>
<path d="M44.8496 72.4348C44.6202 72.4348 44.3858 72.4042 44.1565 72.338C43.2697 72.0832 42.5867 71.3798 42.3676 70.4777L38.7643 55.4428C38.4381 54.0769 39.2841 52.7009 40.65 52.3696C42.0312 52.0485 43.3971 52.8894 43.7232 54.2553L46.1135 64.2395C50.5425 57.3133 51.4242 48.4503 51.5159 43.2671C51.5414 41.8604 52.7544 40.7596 54.1101 40.7647C55.5167 40.7851 56.638 41.9522 56.6125 43.3537C56.3984 55.4122 52.8614 65.4729 46.6487 71.6856C46.1645 72.1698 45.5121 72.4348 44.8496 72.4348Z" fill="white"/>
<path d="M22.6132 38.7615C22.4144 38.7615 22.2156 38.7411 22.0169 38.6901L6.98193 35.0868C6.08493 34.8728 5.37141 34.1949 5.12167 33.303C4.87194 32.4162 5.12167 31.4632 5.76894 30.8108C11.9817 24.5981 22.0423 21.0611 34.106 20.847C35.5177 20.7196 36.6746 21.9428 36.695 23.3494C36.7154 24.7561 35.6044 25.9181 34.1926 25.9436C29.0043 26.0353 20.1464 26.917 13.2202 31.346L23.2044 33.7363C24.5703 34.0624 25.4163 35.4385 25.0901 36.8095C24.8047 37.9766 23.765 38.7615 22.6132 38.7615Z" fill="white"/>
<path d="M3.54695 76.46C2.8793 76.46 2.23203 76.1949 1.74276 75.7159C1.0802 75.0533 0.835566 74.0799 1.10568 73.1829C1.94662 70.3695 6.31949 56.1705 9.74439 52.7455C13.8675 48.6173 20.5797 48.6122 24.7182 52.7455C28.8464 56.8738 28.8464 63.5911 24.7182 67.7193C21.2983 71.1442 7.09417 75.512 4.28086 76.3529C4.03622 76.4243 3.79158 76.46 3.54695 76.46ZM17.2313 54.7434C15.8246 54.7434 14.418 55.2786 13.3477 56.3488C11.9002 57.7963 9.41312 64.1772 7.46622 69.9924C13.2814 68.0455 19.6674 65.5584 21.1098 64.116C23.2503 61.9755 23.2503 58.4894 21.1098 56.3539C20.0395 55.2786 18.6328 54.7434 17.2313 54.7434Z" fill="white"/>
</svg>
