<svg width="108" height="88" viewBox="0 0 108 88" fill="none" xmlns="http://www.w3.org/2000/svg">
<path d="M17.7988 0.496094L10.7675 14.3222H12.1869V25.5968H5.03363L0.912598 33.7001L51.9752 60.093L68.8615 26.889L17.7988 0.496094Z" fill="#F2F2F2"/>
<path d="M94.5999 9.49219H16.3145V49.0877H94.5999V9.49219Z" fill="#3F3D56"/>
<path opacity="0.3" d="M85.0806 23.7197H27.2983V23.854H85.0806V23.7197Z" fill="#6C63FF"/>
<path opacity="0.3" d="M85.1475 27.0742H27.3652V27.2084H85.1475V27.0742Z" fill="#6C63FF"/>
<path opacity="0.3" d="M85.1475 33.7852H27.3652V33.9194H85.1475V33.7852Z" fill="#6C63FF"/>
<path opacity="0.3" d="M85.1475 36.7383H27.3652V36.8725H85.1475V36.7383Z" fill="#6C63FF"/>
<path opacity="0.3" d="M85.1475 30.4297H27.3652V30.5639H85.1475V30.4297Z" fill="#6C63FF"/>
<path d="M76.3605 87.3389C90.0371 87.3389 101.124 86.3173 101.124 85.0572C101.124 83.797 90.0371 82.7754 76.3605 82.7754C62.6838 82.7754 51.5967 83.797 51.5967 85.0572C51.5967 86.3173 62.6838 87.3389 76.3605 87.3389Z" fill="#3F3D56"/>
<path d="M28.6046 37.1794L28.9509 37.5457L29.3143 37.1964L37.4537 29.3753L44.7113 34.6381L45.0766 34.903L45.3775 34.5667L51.1687 28.0936L53.4342 30.0349L53.7088 30.2703L54.0183 30.0831L61.0763 25.8139L68.9307 31.1361L69.1891 31.3112L69.4599 31.1559L82.3526 23.7627L82.7833 23.5158L82.5394 23.0834L82.4079 22.8501L82.1605 22.4114L81.7236 22.662L69.2449 29.8176L61.38 24.4884L61.1149 24.3087L60.8408 24.4745L53.8371 28.711L51.4233 26.6426L51.0516 26.3241L50.7253 26.6888L44.895 33.2054L37.6786 27.9723L37.3401 27.7268L37.0386 28.0165L28.4377 36.281L28.0801 36.6246L28.4208 36.985L28.6046 37.1794Z" fill="#5E17EB" stroke="#5E17EB"/>
<path d="M53.7368 80.4742C54.3626 82.8062 56.5059 84.2504 56.5059 84.2504C56.5059 84.2504 57.6347 81.9138 57.009 79.5819C56.3832 77.2499 54.2399 75.8057 54.2399 75.8057C54.2399 75.8057 53.1111 78.1423 53.7368 80.4742Z" fill="#3F3D56"/>
<path d="M54.6555 79.9713C56.3725 81.6564 56.5822 84.2468 56.5822 84.2468C56.5822 84.2468 54.0081 84.1051 52.291 82.42C50.574 80.7349 50.3643 78.1445 50.3643 78.1445C50.3643 78.1445 52.9384 78.2862 54.6555 79.9713Z" fill="#5E17EB"/>
<path opacity="0.4" d="M102.788 12.1765C105.252 12.1765 107.248 10.1633 107.248 7.68002C107.248 5.19671 105.252 3.18359 102.788 3.18359C100.325 3.18359 98.3281 5.19671 98.3281 7.68002C98.3281 10.1633 100.325 12.1765 102.788 12.1765Z" fill="#5E17EB"/>
<path opacity="0.4" d="M94.5331 12.9813C96.261 12.9813 97.6618 11.5691 97.6618 9.82709C97.6618 8.08505 96.261 6.67285 94.5331 6.67285C92.8051 6.67285 91.4043 8.08505 91.4043 9.82709C91.4043 11.5691 92.8051 12.9813 94.5331 12.9813Z" fill="#5E17EB"/>
<path opacity="0.4" d="M90.6725 69.3546C91.5916 69.3546 92.3367 68.6034 92.3367 67.6768C92.3367 66.7502 91.5916 65.999 90.6725 65.999C89.7534 65.999 89.0083 66.7502 89.0083 67.6768C89.0083 68.6034 89.7534 69.3546 90.6725 69.3546Z" fill="#5E17EB"/>
<path opacity="0.4" d="M62.3141 77.6762C63.0126 77.6762 63.5789 77.1053 63.5789 76.4011C63.5789 75.6969 63.0126 75.126 62.3141 75.126C61.6156 75.126 61.0493 75.6969 61.0493 76.4011C61.0493 77.1053 61.6156 77.6762 62.3141 77.6762Z" fill="#5E17EB"/>
<path opacity="0.4" d="M58.053 61.1671C58.9721 61.1671 59.7173 60.4159 59.7173 59.4893C59.7173 58.5627 58.9721 57.8115 58.053 57.8115C57.1338 57.8115 56.3887 58.5627 56.3887 59.4893C56.3887 60.4159 57.1338 61.1671 58.053 61.1671Z" fill="#5E17EB"/>
<path d="M81.8851 25.5308C82.841 25.5308 83.6158 24.7496 83.6158 23.7859C83.6158 22.8222 82.841 22.041 81.8851 22.041C80.9292 22.041 80.1543 22.8222 80.1543 23.7859C80.1543 24.7496 80.9292 25.5308 81.8851 25.5308Z" fill="#5E17EB"/>
<path d="M70.6399 55.3893L69.1726 55.5536C69.1726 55.5536 68.5205 58.512 69.1726 62.4565C69.8248 66.401 70.6399 70.3456 70.6399 70.3456C70.6399 70.3456 71.292 83.1653 71.6181 83.3296C71.9441 83.494 74.8786 84.4801 75.0416 83.494C75.2047 82.5078 75.2047 59.9912 75.2047 59.9912L77.4871 70.8386C77.4871 70.8386 77.8131 84.4801 78.4652 84.4801C79.1174 84.4801 81.2367 84.3157 81.2367 83.1653C81.2367 82.0148 81.7258 66.8941 81.7258 66.8941C81.7258 66.8941 81.5628 55.718 80.9107 55.3893C80.2585 55.0605 70.6399 55.3893 70.6399 55.3893Z" fill="#2F2E41"/>
<path d="M71.943 82.8377C71.943 82.8377 70.4758 82.6733 70.1497 82.8377C69.8236 83.0021 69.3346 84.1525 70.1497 84.81C70.9648 85.4674 73.0842 86.4536 73.7363 86.4536C74.1885 86.4333 74.6321 86.3215 75.0406 86.1248L74.7145 83.3308L71.943 82.8377Z" fill="#2F2E41"/>
<path d="M78.4653 83.6596L78.6284 85.9606C78.6284 85.9606 80.7477 86.2893 80.9107 85.9606C81.0737 85.6319 82.7039 84.8101 82.867 84.6457C83.03 84.4814 83.193 82.6735 82.2149 82.5091C81.2367 82.3448 80.9107 82.8378 80.9107 82.8378L78.4653 83.6596Z" fill="#2F2E41"/>
<path d="M64.7706 41.584C64.7706 41.584 60.8579 45.3642 61.347 47.3364C61.8361 49.3087 65.7487 55.0611 65.7487 55.0611C65.7487 55.0611 69.4983 57.0334 69.9874 55.0611C70.4765 53.0889 67.379 53.5819 67.379 53.5819L64.9336 47.6651L67.705 43.7206L64.7706 41.584Z" fill="#FFB8B8"/>
<path d="M82.2528 35.8334C82.2528 35.8334 85.817 33.5227 85.7345 31.9351C85.652 30.3476 83.5034 25.3422 83.5034 25.3422C83.5034 25.3422 81.8225 21.8189 81.1542 23.2588C80.486 24.6987 82.0325 26.2314 82.0325 26.2314L83.0307 31.1416L80.3179 33.7506L82.2528 35.8334Z" fill="#FFB8B8"/>
<path d="M73.4111 32.5457C75.0318 32.5457 76.3456 31.2212 76.3456 29.5873C76.3456 27.9534 75.0318 26.6289 73.4111 26.6289C71.7904 26.6289 70.4766 27.9534 70.4766 29.5873C70.4766 31.2212 71.7904 32.5457 73.4111 32.5457Z" fill="#FFB8B8"/>
<path d="M71.9438 31.3944L72.4329 34.5171L76.0195 33.8597C76.0195 33.8597 75.8564 30.7369 75.8564 30.4082C75.8564 30.0795 71.9438 31.3944 71.9438 31.3944Z" fill="#FFB8B8"/>
<path d="M71.7807 34.5175C71.7807 34.5175 75.8563 33.5313 76.3454 33.8601C76.8345 34.1888 79.2799 34.5175 79.2799 34.5175L82.0514 38.7907L81.2363 44.2144C81.2363 44.2144 81.0732 52.9252 81.3993 54.4044C81.7253 55.8836 83.5186 56.048 79.769 56.3767C76.0194 56.7054 75.3673 56.2123 72.7588 56.8697C70.1504 57.5272 68.031 56.541 68.6831 55.8836C69.3352 55.2262 70.4764 44.7075 69.1722 43.7213C67.868 42.7352 67.3789 37.6402 67.3789 37.6402C67.3789 37.6402 71.7807 35.3392 71.7807 34.5175Z" fill="#D0CDE1"/>
<path d="M78.791 35.0104L79.2801 34.5174L80.2583 33.5312C80.2583 33.5312 83.4373 34.9283 83.2743 35.4213C83.1112 35.9144 82.0516 38.7906 82.0516 38.7906L80.5843 39.2836L78.791 35.0104Z" fill="#D0CDE1"/>
<path d="M69.3345 37.9693L67.3782 37.6406C67.3782 37.6406 65.9109 39.2842 65.4218 39.9416C64.9328 40.599 63.9546 42.2426 63.9546 42.2426L67.3782 44.7079L69.9867 41.9139L69.3345 37.9693Z" fill="#D0CDE1"/>
<path d="M74.4349 26.0033L74.4049 25.7663C74.2054 25.7652 74.0071 25.7966 73.8176 25.8594C73.7982 25.7165 73.8106 25.571 73.8538 25.4335C73.6612 25.4834 73.4778 25.5638 73.3102 25.6718L73.1917 25.2393L71.5619 26.049C70.9769 26.3397 70.3601 26.6591 70.0256 27.2236C69.6528 27.8529 69.7177 28.6617 69.9725 29.3483C70.2274 30.0348 70.6509 30.6424 70.9904 31.2906C71.1193 31.5694 71.2742 31.8351 71.453 32.0843C72.0681 32.8574 73.2656 33.0136 74.133 32.547C74.463 32.3867 74.7261 32.1138 74.8756 31.7766C74.9388 31.5674 74.9884 31.3543 75.024 31.1386C75.1312 30.6968 75.2558 29.7848 75.6117 29.5053C75.7684 29.3823 76.0789 29.79 76.2087 29.6386C76.5423 29.2494 76.4723 28.6492 76.2651 28.1791C76.0663 27.707 75.8338 27.25 75.5697 26.8117C75.4578 26.6355 74.4313 25.9749 74.4349 26.0033Z" fill="#2F2E41"/>
<path d="M11.1219 15.9336H2.60107V24.5238H11.1219V15.9336Z" fill="#3F3D56"/>
</svg>
